<svg xmlns="http://www.w3.org/2000/svg" xmlns:xlink="http://www.w3.org/1999/xlink" width="1096.99" height="786.37" x="0" y="0" version="1.1" viewBox="0 0 1096.99 786.37" xml:space="preserve" style="enable-background:new 0 0 1096.99 786.37"><style type="text/css">.st1{fill:#dd1758}.st17{opacity:.1}.st23{fill:#fff}.st25{opacity:.2}.st73{enable-background:new}.st159{fill:#ac6b4a}.st286{fill:#2375bb}.st307{fill:#b71458}.st308{fill:#c7143b}.st309{fill:#8b143b}.st310{fill:#b1163b}.st681{fill:#262a59}.st701{fill:#945b41}.st702{fill:#f8fafd}.st1167,.st717{opacity:.1}.st717{fill:#020203}.st1167{fill:#020304;enable-background:new}.st1248{fill:#e9416e}.st1249{fill:#881a38}.st1253{fill:#38415f}.st1257{fill:#636c8d}.st1258{fill:#c0cdd9}.st1259{fill:#3e4663}.st1261{fill:#ecc1a6}.st1836{fill:#e6edf7}.st1846{fill:#d42351}.st1848{fill:#eb587f}.st1849{fill:#0d7abf}.st1850{fill:#2398d5}.st1851{fill:#fbd1b9}.st1852{fill:#eb5e88}.st1853{fill:#fbd5bf}.st1854{fill:#2f384f}.st1855{fill:#272d40}.st1856{fill:#f0d0b8}.st1857{fill:#7f87a8}.st1858{fill:#d8e1ed}.st1859{fill:#c32f54}.st1860{fill:#88203b}.st1867{fill:#edc5ac}</style><g id="Ebene_1"><linearGradient id="SVGID_00000123419001350253462330000016818230622366546088_" x1="575.232" x2="1071.005" y1="311.514" y2="784.408" gradientTransform="matrix(1.0197 0.1323 -0.0408 1.0867 -68.6786 -293.4942)" gradientUnits="userSpaceOnUse"><stop offset=".287" style="stop-color:#dd1758"/><stop offset=".374" style="stop-color:#cd1e58"/><stop offset=".556" style="stop-color:#a22559"/><stop offset=".816" style="stop-color:#5d2a5a"/><stop offset="1" style="stop-color:#272959"/></linearGradient><path style="fill:url(#SVGID_00000123419001350253462330000016818230622366546088_)" d="M1091.13,410.32 c11.45,119.38,4.58,221.33-77.12,260.27c-145.38,69.3-243.64-79.53-300.81-122.66c-58.59-44.2-128.86-28.19-191.74-4.84 c-190.5,70.73-202.01-128.14-162.74-231.52C474.98,5.53,1037.8-145.67,1091.13,410.32z"/><g class="st25"><path d="M966.02,551.77c-2.49,1.33-3.43,4.42-2.1,6.91c1.33,2.49,4.42,3.43,6.91,2.1c2.49-1.33,3.43-4.42,2.1-6.91 c-0.56-1.05-1.43-1.81-2.44-2.26l12.2-40.11c1.51-0.07,3.03-0.45,4.45-1.21c5.08-2.71,7-9.02,4.29-14.1l18.47-9.86 c0.01,0.02,0.02,0.03,0.02,0.05c5.25,9.26,17.01,12.52,26.27,7.27c8.58-4.86,11.99-15.31,8.28-24.19l43.63-24.71 c1.67,2.27,3.77,4.07,6.12,5.37c-0.6-10.51-1.41-21.21-2.38-32.07c-2.46,1.9-4.36,4.31-5.64,7l-60.45-30 c1.89-4.03,2.31-8.75,0.78-13.3c-2.01-5.98-6.89-10.19-12.59-11.62l31.7-63.87c1.78,0.62,3.76,0.69,5.69,0.04 c4.58-1.54,7.05-6.51,5.5-11.09c-1.54-4.58-6.51-7.05-11.09-5.5c-4.58,1.54-7.05,6.51-5.5,11.09c0.65,1.93,1.91,3.47,3.48,4.51 l-31.97,64.42c-1.47-0.18-2.97-0.16-4.48,0.03l-1.62-60.41c6.73-0.32,13.35-3.13,18.34-8.41c6.57-6.94,8.75-16.44,6.63-25.08 l33.76-0.91c-0.35-1.08-0.69-2.15-1.04-3.22l-33.72,0.9c-1.4-3.66-3.62-7.08-6.66-9.96c-10.85-10.28-27.98-9.82-38.26,1.03 l-50.79-48.13c6.3-6.65,8.55-15.66,6.86-24.01l63.67-35.98c-0.51-0.67-1.01-1.35-1.52-2.02l-62.79,35.48 c-1.32-4.33-3.73-8.4-7.25-11.73c-8.53-8.09-20.94-9.5-30.86-4.47l-37.98-67.21c2.91-1.8,5.19-4.65,6.18-8.21 c2.09-7.51-2.31-15.29-9.82-17.38c-7.51-2.09-15.29,2.31-17.38,9.82c-2.09,7.51,2.31,15.29,9.82,17.38 c3.08,0.86,6.19,0.61,8.95-0.48l38.04,67.32c-1.87,1.18-3.63,2.58-5.22,4.25c-10.28,10.85-9.82,27.98,1.03,38.26 c3.07,2.91,6.65,4.95,10.43,6.15l-12.98,46.69c-5.3-0.81-10.54,0.48-14.77,3.32l-17.37-30.75c1.63-1.01,2.91-2.61,3.47-4.6 c1.17-4.21-1.3-8.58-5.51-9.75c-4.21-1.17-8.58,1.3-9.75,5.51c-1.17,4.21,1.29,8.58,5.51,9.75c1.73,0.48,3.47,0.34,5.02-0.27 l17.48,30.93c-3.44,2.66-6.08,6.4-7.33,10.91c-3.04,10.94,3.23,22.26,14.04,25.55l-6.62,23.84c-5.78-0.88-11.44,2.66-13.04,8.44 c-0.73,2.64-0.49,5.33,0.5,7.67l-23.28,9.56c-2.19-5.32-8.28-7.87-13.6-5.68c-1.49,0.61-2.75,1.54-3.76,2.66l-38.69-16.16 c0.3-1.06,0.26-2.22-0.19-3.32c-1.07-2.61-4.05-3.85-6.66-2.78c-2.61,1.07-3.85,4.05-2.78,6.66c1.07,2.61,4.05,3.85,6.66,2.78 c1.09-0.45,1.94-1.24,2.49-2.19l38.36,16.02c-1.96,2.81-2.5,6.52-1.11,9.93c1.06,2.59,3.05,4.51,5.42,5.56l-16.3,39.02 c-1.6-0.6-3.42-0.62-5.13,0.08c-3.6,1.48-5.32,5.59-3.84,9.19c1.48,3.6,5.59,5.32,9.19,3.84c3.6-1.48,5.32-5.59,3.84-9.19 c-0.61-1.47-1.66-2.63-2.93-3.38l16.34-39.11c2.22,0.68,4.69,0.63,7.01-0.32c4.93-2.03,7.47-7.4,6.08-12.41l23.42-9.62 c1.47,2.66,3.96,4.74,7.11,5.62c6.23,1.73,12.69-1.92,14.42-8.15c1.73-6.23-1.92-12.69-8.15-14.42l6.61-23.77 c10.84,2.53,21.84-3.9,24.85-14.72c0.86-3.09,0.95-6.2,0.44-9.16l31.9-18.03c0.73,0.99,1.79,1.76,3.07,2.12 c3.05,0.85,6.21-0.94,7.06-3.99c0.85-3.05-0.94-6.21-3.99-7.06c-3.05-0.85-6.21,0.94-7.06,3.99c-0.36,1.28-0.24,2.58,0.23,3.72 l-31.51,17.8c-1.76-7.07-7.15-13.02-14.67-15.11l12.94-46.56c7.94,1.72,16.48-0.17,23.03-5.6l51.08,48.41 c-8.06,10.84-6.94,26.24,3.11,35.77c4.73,4.48,10.64,6.92,16.67,7.35l1.64,61.15c-0.05,0.02-0.1,0.02-0.15,0.04 c-9.36,3.15-14.39,13.29-11.24,22.65l-43.81,14.75c-1.07-3.17-2.95-5.83-5.32-7.86l11.95-15.72c4.49,2.63,10.33,1.57,13.56-2.68 c3.48-4.58,2.6-11.12-1.99-14.6c-4.58-3.48-11.12-2.6-14.6,1.99s-2.6,11.12,1.99,14.6l-11.88,15.62 c-4.54-3.36-10.59-4.53-16.35-2.59c-7.03,2.37-11.61,8.67-12.13,15.63l-34,4.62c-0.28-1.06-0.9-2.05-1.84-2.76 c-2.24-1.71-5.45-1.27-7.15,0.97c-1.71,2.24-1.27,5.45,0.97,7.15c2.24,1.71,5.45,1.27,7.15-0.97c0.72-0.94,1.05-2.05,1.04-3.15 l33.8-4.6c-0.01,1.91,0.28,3.84,0.92,5.75c2.75,8.17,10.84,13.04,19.07,12.05l4.66,34.27c-1.68,0.3-3.27,1.2-4.38,2.66 c-2.35,3.1-1.75,7.51,1.34,9.87c3.1,2.35,7.51,1.75,9.87-1.34c2.35-3.1,1.75-7.51-1.34-9.87c-1.27-0.97-2.76-1.43-4.24-1.43 l-4.67-34.37c0.78-0.15,1.57-0.34,2.34-0.6c8.67-2.92,13.61-11.83,11.79-20.57l44.07-14.84c2.3,4.83,6.57,8.23,11.49,9.56 l0.39,14.65c-3.79,0.63-7.42,2.43-10.27,5.44c-6.95,7.33-6.64,18.91,0.69,25.85c7.33,6.95,18.91,6.64,25.85-0.69 c6.95-7.33,6.64-18.91-0.69-25.85c-3.48-3.3-7.91-4.94-12.35-4.99l-0.37-13.84c2.33,0.18,4.72-0.08,7.07-0.87 c4.08-1.37,7.33-4.07,9.45-7.45l60.66,30.1c-1.73,5.04-1.39,10.76,1.44,15.76l-43.37,24.56c-5.25-9.26-17.01-12.52-26.27-7.27 c-8.88,5.03-12.22,16.04-7.86,25.11l-18.57,9.91c-2.98-4.27-8.74-5.73-13.44-3.22c-2.21,1.18-3.82,3.04-4.72,5.19l-40.56-12.33 c0.23-1.46,0.01-3.01-0.74-4.41c-1.83-3.43-6.1-4.73-9.53-2.9c-3.43,1.83-4.73,6.1-2.9,9.53c1.83,3.43,6.1,4.73,9.53,2.9 c1.63-0.87,2.77-2.29,3.33-3.9l40.46,12.3c-0.7,2.5-0.49,5.26,0.83,7.72c1.73,3.25,4.94,5.19,8.36,5.47l-12.09,39.77 C968.22,551.06,967.07,551.21,966.02,551.77z" class="st23"/><path d="M1092.48,542.03l-69.66,4.02c-0.34-1.85-1.27-3.61-2.78-4.96c-3.61-3.22-9.15-2.9-12.36,0.71 c-3.22,3.61-2.9,9.15,0.71,12.36c3.61,3.22,9.15,2.9,12.36-0.71c1.35-1.52,2.07-3.38,2.19-5.26l69.27-4 C1092.31,543.48,1092.39,542.75,1092.48,542.03z" class="st23"/><path d="M717.29,291.11c-0.35-2-1.37-3.72-2.77-4.98l41.22-58.93c2.49,0.7,5.17,0.88,7.89,0.4 c9.72-1.72,16.21-10.99,14.49-20.72l45.52-8.05c1.72,9.72,10.99,16.21,20.72,14.49c9.72-1.72,16.21-10.99,14.49-20.72 c-1.72-9.72-10.99-16.21-20.72-14.49c-9.01,1.59-15.22,9.67-14.73,18.58l-45.79,8.1c-2.59-8.54-11.2-14-20.21-12.41 c-4.24,0.75-7.85,2.93-10.45,5.96l-59.58-41.68c1.16-2.26,1.62-4.9,1.15-7.59c-0.28-1.59-0.86-3.04-1.67-4.32l22.91-18.7 c0.86,0.8,1.97,1.33,3.22,1.46c3.06,0.31,5.79-1.92,6.1-4.97c0.31-3.06-1.92-5.79-4.97-6.1c-3.06-0.31-5.79,1.92-6.1,4.97 c-0.15,1.45,0.28,2.82,1.09,3.9l-22.81,18.62c-2.65-3.52-7.12-5.48-11.76-4.66c-2.77,0.49-5.14,1.89-6.88,3.84l-17.88-21.91 c0.6-0.63,1.01-1.45,1.1-2.38c0.22-2.22-1.39-4.19-3.61-4.42c-2.22-0.22-4.19,1.39-4.42,3.61c-0.22,2.22,1.39,4.19,3.6,4.42 c0.93,0.09,1.82-0.14,2.55-0.6l18,22.06c-1.95,2.59-2.88,5.94-2.27,9.38c0.99,5.58,5.66,9.57,11.07,9.94l-1.81,17.92 c-4.52-0.46-8.56,2.84-9.02,7.36c-0.46,4.52,2.84,8.56,7.36,9.02c4.52,0.46,8.56-2.84,9.02-7.36c0.42-4.19-2.38-7.96-6.39-8.86 l1.83-18.06c0.64-0.01,1.29-0.06,1.94-0.17c3.12-0.55,5.73-2.26,7.5-4.59l59.44,41.58c-2.47,3.7-3.59,8.31-2.75,13.04 c1.1,6.22,5.29,11.1,10.72,13.37l-40.87,58.43c-1.66-0.88-3.62-1.24-5.62-0.89c-4.76,0.84-7.94,5.38-7.1,10.15 c0.84,4.76,5.38,7.94,10.15,7.1C714.96,300.41,718.13,295.87,717.29,291.11z" class="st23"/><path d="M746.71,83.93c1-0.7,1.79-1.71,2.19-2.95c0.99-3.04-0.68-6.31-3.72-7.3c-3.04-0.99-6.31,0.68-7.3,3.72 c-0.99,3.04,0.68,6.31,3.72,7.3c1.44,0.47,2.93,0.33,4.21-0.25l15.8,30.98c-1.88,1.01-3.39,2.71-4.1,4.9 c-0.93,2.88-0.26,5.89,1.53,8.07l-30.45,15.53c-0.51-0.75-1.25-1.34-2.18-1.64c-2.21-0.72-4.57,0.49-5.29,2.7 c-0.72,2.21,0.49,4.57,2.7,5.29c2.2,0.72,4.57-0.49,5.29-2.7c0.3-0.93,0.26-1.88-0.05-2.73l30.72-15.66 c0.9,0.86,1.99,1.54,3.25,1.94c4.5,1.46,9.34-1,10.8-5.51l14.76,4.79c-1.77,7.78,2.85,15.65,10.62,17.8 c8,2.22,16.28-2.46,18.51-10.46c2.22-8-2.46-16.28-10.46-18.51l10.41-37.45c8,2.22,16.28-2.46,18.51-10.46 c0.62-2.24,0.69-4.49,0.31-6.64l23-13c-0.79-0.25-1.58-0.49-2.37-0.73l-21.06,11.9c-1.46-4.72-5.21-8.62-10.33-10.05 c-3.89-1.08-7.84-0.52-11.14,1.25l-7.86-13.92c-0.74-0.1-1.49-0.19-2.23-0.28l8.56,15.14c-2.74,1.93-4.86,4.78-5.83,8.27 c-2.06,7.41,1.81,15.06,8.75,17.91l-10.47,37.67c-7.32-1.12-14.47,3.3-16.64,10.53l-14.76-4.79c0.83-4.2-1.59-8.45-5.76-9.8 c-1.96-0.64-3.98-0.53-5.77,0.17L746.71,83.93z" class="st23"/><path d="M1011.31,165.06l-9.3,33.45c-7.42-1.13-14.68,3.42-16.74,10.83c-2.22,8,2.46,16.28,10.46,18.51 c8,2.22,16.28-2.46,18.51-10.46c2.22-8-2.46-16.28-10.46-18.51l8.86-31.88C1012.2,166.35,1011.76,165.7,1011.31,165.06z" class="st23"/></g><linearGradient id="SVGID_00000021809443558510968600000008929905095384158887_" x1="1478.314" x2="1224.287" y1="-2645.975" y2="-2133.514" gradientTransform="matrix(0.8131 0.5826 0.6354 -0.8712 843.866 -2407.7786)" gradientUnits="userSpaceOnUse"><stop offset="0" style="stop-color:#272959"/><stop offset=".556" style="stop-color:#2275bb"/></linearGradient><path style="fill:url(#SVGID_00000021809443558510968600000008929905095384158887_)" d="M335.44,738.47 C171.87,676.54-13.64,500.15,5.66,297.15c13.9-146.23,138.53-240.36,275.92-121.3c174.15,150.9,378.27,90.6,489.79,156.73 c47.47,28.15,183.88,143.76,12.27,334.57C703.4,756.36,549.84,819.65,335.44,738.47z"/><g><g id="pc_00000135692840102854653890000008816240113019994267_"><g id="PC_00000124865103340295300320000013883922996210138502_"><g id="keyboard_00000109025944900110537840000010718895530524372925_"><path d="M270.8,560.3l223.64,138.1c5.93,3.42,26,5.32,37.01,0l1.27-0.73l80.08-46.13 c5.93-3.42,5.93-8.97,0-12.39l-239.18-138.1c-5.93-3.42-15.54-3.42-21.46,0l-80.17,46.18l-1.17,0.68 C264.87,551.33,264.87,556.87,270.8,560.3z" class="st717"/><linearGradient id="SVGID_00000119840682264241583710000000333550729843137935_" x1="326.404" x2="529.933" y1="616.347" y2="616.347" gradientTransform="matrix(-1 0 0 1 915.6536 0)" gradientUnits="userSpaceOnUse"><stop offset=".327" style="stop-color:#c0cdd9"/><stop offset=".376" style="stop-color:#c4d0dd"/><stop offset=".434" style="stop-color:#d0dae6"/><stop offset=".496" style="stop-color:#e5ecf6"/><stop offset=".5" style="stop-color:#e6edf7"/><stop offset=".555" style="stop-color:#e6edf7"/><stop offset="1" style="stop-color:#e6edf7"/></linearGradient><path style="fill:url(#SVGID_00000119840682264241583710000000333550729843137935_)" d="M238.36,552.28v-18.81l350.88,91.67 l0.01,13.6c0,0,0,5.15,0,5.15c-0.1,2.17-1.57,4.33-4.45,5.99l-81.35,46.79c-5.93,3.42-15.54,3.42-21.47,0L242.8,558.57 c-2.88-1.66-4.36-8.77-4.44-10.95C238.37,547.61,238.36,552.34,238.36,552.28z"/><path d="M242.81,539.84l10.04,5.8l31.03,17.92l198.11,114.39c5.93,3.42,15.54,3.42,21.46,0l1.27-0.73 l80.08-46.13c5.93-3.42,5.93-8.97,0-12.39L383.27,502.34l-37.65-21.74c-1.35-0.78-2.9-1.38-4.55-1.8 c-5.58-1.44-12.35-0.83-16.92,1.8l-80.17,46.18l-1.17,0.68C236.88,530.87,236.88,536.42,242.81,539.84z" class="st702"/><g><path d="M561.06,629.88c1.77,0,3.49-0.92,4.44-2.56c1.41-2.45,0.57-5.58-1.88-6.99l-171.18-98.72 c-2.44-1.41-5.58-0.57-6.99,1.88c-1.41,2.45-0.57,5.58,1.88,6.99l171.18,98.72C559.31,629.66,560.19,629.88,561.06,629.88z" class="st1258"/></g><g><path d="M367.58,518.31c1.77,0,3.49-0.92,4.44-2.56c1.41-2.45,0.57-5.58-1.88-6.99l-34.29-19.77 c-2.44-1.41-5.58-0.57-6.99,1.88c-1.41,2.45-0.57,5.58,1.88,6.99l34.29,19.77C365.83,518.09,366.71,518.31,367.58,518.31z" class="st1258"/></g><g><path d="M542.58,642.81c1.77,0,3.49-0.92,4.44-2.56c1.41-2.45,0.57-5.58-1.88-6.99l-171.18-98.72 c-2.44-1.41-5.58-0.57-6.99,1.88c-1.41,2.45-0.57,5.58,1.88,6.99l171.18,98.72C540.83,642.59,541.71,642.81,542.58,642.81z" class="st1258"/></g><g><path d="M349.1,531.23c1.77,0,3.49-0.92,4.44-2.56c1.41-2.45,0.57-5.58-1.88-6.99l-34.29-19.77 c-2.44-1.41-5.58-0.57-6.99,1.88c-1.41,2.45-0.57,5.58,1.88,6.99l34.29,19.77C347.35,531.01,348.23,531.23,349.1,531.23z" class="st1258"/></g><g><path d="M521.1,654.2c1.77,0,3.49-0.92,4.44-2.56c1.41-2.45,0.57-5.58-1.88-6.99l-171.18-98.72 c-2.44-1.41-5.58-0.57-6.99,1.88c-1.41,2.45-0.57,5.58,1.88,6.99l171.18,98.72C519.35,653.98,520.23,654.2,521.1,654.2z" class="st1258"/></g><g><path d="M327.61,542.62c1.77,0,3.49-0.92,4.44-2.56c1.41-2.45,0.57-5.58-1.88-6.99l-34.29-19.77 c-2.44-1.41-5.58-0.57-6.99,1.88c-1.41,2.45-0.57,5.58,1.88,6.99l34.29,19.77C325.87,542.4,326.75,542.62,327.61,542.62z" class="st1258"/></g><g><path d="M354.36,581.55c1.77,0,3.49-0.92,4.44-2.56c1.41-2.45,0.57-5.58-1.88-6.99l-25.07-14.46 c-2.45-1.41-5.58-0.57-6.99,1.88c-1.41,2.45-0.57,5.58,1.88,6.99l25.07,14.46C352.61,581.33,353.49,581.55,354.36,581.55z" class="st1258"/></g><g><path d="M457.14,640.82c1.77,0,3.49-0.92,4.44-2.56c1.41-2.45,0.57-5.58-1.88-6.99l-87.07-50.21 c-2.45-1.41-5.58-0.57-6.99,1.88c-1.41,2.45-0.57,5.58,1.88,6.99l87.07,50.21C455.4,640.6,456.28,640.82,457.14,640.82z" class="st1258"/></g><g><path d="M500.48,665.82c1.77,0,3.49-0.92,4.44-2.56c1.41-2.45,0.57-5.58-1.88-6.99l-27.68-15.97 c-2.44-1.41-5.58-0.57-6.99,1.88c-1.41,2.45-0.57,5.58,1.88,6.99l27.68,15.97C498.73,665.6,499.61,665.82,500.48,665.82z" class="st1258"/></g><g><path d="M307,554.24c1.77,0,3.49-0.92,4.44-2.56c1.41-2.45,0.57-5.58-1.88-6.99l-34.29-19.77 c-2.44-1.41-5.58-0.57-6.99,1.88c-1.41,2.45-0.57,5.58,1.88,6.99l34.29,19.77C305.25,554.02,306.13,554.24,307,554.24z" class="st1258"/></g></g><g><g><path d="M442.93,488.24l79.76-46.35l-84.25-48.61c-3.9-2.25-3.66-7.95,0.41-9.86l15.1-7.1 c3.14-1.48,6.81-1.33,9.82,0.41l85.8,49.54l1.28-0.75c5.89-3.42,15.47-3.43,21.4-0.01l148.71,85.86 c5.93,3.42,5.96,8.98,0.07,12.4l-1.28,0.75l35.87,20.71c3.47,2,3.75,6.91,0.54,9.29l-11.14,8.27 c-3.4,2.52-7.96,2.78-11.63,0.67l-40.47-23.35l-71.7,41.67c-5.89,3.42-45.87,2.39-51.8-1.03l-126.44-80.11 C437.07,497.21,437.05,491.66,442.93,488.24z" class="st717"/><linearGradient id="SVGID_00000108294160821244789760000002128923588435899272_" x1="235.089" x2="483.413" y1="528.72" y2="528.72" gradientTransform="matrix(-1 0 0 1 915.6536 0)" gradientUnits="userSpaceOnUse"><stop offset=".327" style="stop-color:#c0cdd9"/><stop offset=".376" style="stop-color:#c4d0dd"/><stop offset=".434" style="stop-color:#d0dae6"/><stop offset=".496" style="stop-color:#e5ecf6"/><stop offset=".5" style="stop-color:#e6edf7"/><stop offset=".555" style="stop-color:#e6edf7"/><stop offset="1" style="stop-color:#e6edf7"/></linearGradient><path style="fill:url(#SVGID_00000108294160821244789760000002128923588435899272_)" d="M676.5,497.89l-99.8,58 c-5.44,3.16-14.32,3.16-19.8,0l-137.51-79.39c-2.75-1.59-3.8,0.46-4.12,1.59L415.23,494c-0.01,2.09,1.37,4.17,4.12,5.76 l137.51,79.39c5.48,3.16,14.35,3.16,19.8,0l99.8-58c2.7-1.57,4.06-3.63,4.06-5.69l0.04-16.26 C679.81,497.2,679.2,496.32,676.5,497.89z"/><path d="M676.44,493.53l-137.51-79.39c-5.48-3.16-14.34-3.16-19.79,0.01l-99.8,58 c-5.44,3.16-5.42,8.3,0.05,11.46L556.9,563c5.48,3.16,14.35,3.16,19.8,0l99.8-58C681.94,501.83,681.92,496.69,676.44,493.53z" class="st702"/><path d="M529.14,485.74l91.02,53.85c5.67,3.27,14.06,3.98,20.89,2.14l35.41-20.58c2.7-1.57,4.06-3.63,4.06-5.69 l0.04-16.2v-0.07c-0.05-2.06-1.42-4.1-4.13-5.67l-94.38-54.49l-53.01,31.56C521.86,474.78,521.9,481.56,529.14,485.74z" class="st702"/></g><g><path d="M527.7,345.98l-12.24,7.35l25,89.9l86.14,61.84l12.24-7.35l-12.13-94.57L527.7,345.98z M558.84,399.72 c0-11.53,9.35-15.48,20.88-8.82c11.53,6.66,20.88,21.4,20.88,32.93c0,11.53-9.35,15.48-20.88,8.82 C568.19,425.99,558.84,411.25,558.84,399.72z" class="st1258"/><path d="M515.46,353.33l12.13,94.57l99.01,57.16l-12.13-94.57L515.46,353.33z M546.6,407.06 c0-11.53,9.35-15.48,20.88-8.82c11.53,6.66,20.88,21.4,20.88,32.93c0,11.53-9.35,15.48-20.88,8.82 C555.95,433.34,546.6,418.6,546.6,407.06z" class="st1836"/></g><g><linearGradient id="SVGID_00000083796916289505374320000005729579031484749219_" x1="284.658" x2="457.593" y1="333.259" y2="9.04" gradientTransform="matrix(-1 0 0 1 915.6536 0)" gradientUnits="userSpaceOnUse"><stop offset=".021" style="stop-color:#c0cdd9"/><stop offset=".047" style="stop-color:#cad5e1"/><stop offset=".095" style="stop-color:#e4ecf6"/><stop offset=".098" style="stop-color:#e6edf7"/></linearGradient><path style="fill:url(#SVGID_00000083796916289505374320000005729579031484749219_)" d="M424.88,38.03 c2.57-1.74,5.2-1.85,8.72,0.18l11.39,6.58l304,175.51l5.55,3.21c1.43,0.83,2.81,1.94,4.07,3.25c2.33,2.4,4.28,5.47,5.54,8.66 c0.99,2.49,1.56,5.06,1.56,7.45v5.05l0,233.86v6.34c0,3.59-1.29,6.11-3.36,7.26c-2.02,1.12-27.28,15.32-27.28,15.32 l-10.01-5.81L539.07,378.4l-10.66-7.25l-9.43-6.42l-9.55-6.49l-74.06-50.36c-6.15-3.55-11.18-12.26-11.18-19.36L398.26,62.23 v-9.37C398.26,52.85,423.2,39.16,424.88,38.03z"/><g><path d="M395.04,305.28c0,7.1,5.03,15.81,11.18,19.36l41.8,24.13l0.04,0.02l77,44.45l88.33,51l78.15,45.12 l35.63,20.57c6.15,3.55,11.18,0.64,11.18-6.46l0-245.25c0-7.1-5.03-15.81-11.18-19.36L406.22,53.58 c-6.15-3.55-11.17-0.65-11.17,6.45L395.04,305.28z" class="st23"/><path d="M420.04,80.67l297.33,171.66c2.92,1.68,4.71,4.79,4.71,8.16l0,217.74c0,3.67-3.98,5.97-7.16,4.13 L417.58,310.38c-2.91-1.68-4.7-4.79-4.7-8.16l0-217.42C412.88,81.13,416.85,78.83,420.04,80.67z" class="st681"/></g><g><g><path d="M425.29,327.35c0,1.6,1.13,3.55,2.51,4.35c1.39,0.8,2.51,0.15,2.51-1.45c0-1.6-1.13-3.55-2.51-4.35 C426.41,325.09,425.29,325.74,425.29,327.35z" class="st1836"/></g><g><path d="M434,332.34c0,1.6,1.13,3.55,2.51,4.35c1.39,0.8,2.51,0.15,2.51-1.45c0-1.6-1.13-3.55-2.51-4.35 C435.12,330.09,434,330.74,434,332.34z" class="st1836"/></g><g><path d="M442.71,337.33c0,1.6,1.13,3.55,2.51,4.35c1.39,0.8,2.51,0.15,2.51-1.45c0-1.6-1.13-3.55-2.51-4.35 C443.84,335.08,442.71,335.73,442.71,337.33z" class="st1836"/></g><g><path d="M451.42,342.33c0,1.6,1.13,3.55,2.51,4.35c1.39,0.8,2.51,0.15,2.51-1.45c0-1.6-1.13-3.55-2.51-4.35 S451.42,340.72,451.42,342.33z" class="st1836"/></g><g><path d="M460.13,347.32c0,1.6,1.13,3.55,2.51,4.35c1.39,0.8,2.51,0.15,2.51-1.45c0-1.6-1.13-3.55-2.51-4.35 C461.26,345.07,460.13,345.72,460.13,347.32z" class="st1836"/></g></g></g></g></g><g><g id="door_00000148636566445942652560000005896650838793055151_"><polygon points="525.07 157.82 525.07 314.1 442.07 266.21 442.07 109.93" class="st702"/><polygon points="499.48 143.08 499.48 233.04 442.07 266.18 442.07 109.93" class="st286"/></g><g class="st73"><linearGradient id="SVGID_00000060031623397503459590000002112650119886324612_" x1="390.585" x2="556.1" y1="343.609" y2="343.609" gradientTransform="matrix(-1 0 0 1 915.6536 0)" gradientUnits="userSpaceOnUse"><stop offset=".327" style="stop-color:#c0cdd9"/><stop offset=".376" style="stop-color:#c4d0dd"/><stop offset=".434" style="stop-color:#d0dae6"/><stop offset=".496" style="stop-color:#e5ecf6"/><stop offset=".5" style="stop-color:#e6edf7"/><stop offset=".555" style="stop-color:#e6edf7"/><stop offset="1" style="stop-color:#e6edf7"/></linearGradient><path style="fill:url(#SVGID_00000060031623397503459590000002112650119886324612_)" d="M359.59,318.52 c-0.01,2.76,1.81,5.52,5.46,7.62l56.77,32.78c7.24,4.18,18.94,4.18,26.14,0l77.12-44.82l-0.03,11.07l-77.12,44.82 c-7.2,4.18-18.9,4.18-26.14,0l-56.77-32.78c-3.64-2.1-5.46-4.87-5.46-7.62L359.59,318.52z"/><path d="M364.96,311l77.12-44.82l82.99,47.92l-77.12,44.82c-7.2,4.18-18.9,4.18-26.14,0l-56.77-32.78 C357.8,321.96,357.76,315.18,364.96,311z" class="st702"/></g></g><polygon points="238.63 556.41 184.89 597.14 210.53 618.91 230.02 611.7 282.11 581.26" class="st717"/><path d="M282.11,581.26v-11.02c0-2.38,0.63-4.68,1.77-6.69c1.14-2.02,2.8-3.74,4.86-4.96l94.54-56.26l-37.65-21.74 c-1.35-0.78-2.9-1.38-4.55-1.8l-88.22,66.85l-14.22,10.77L282.11,581.26z" class="st17"/><g class="st73"><linearGradient id="SVGID_00000091703417143833833120000010356754809046694272_" x1="504.209" x2="416.273" y1="366.519" y2="214.209" gradientTransform="matrix(-1 0 0 1 915.6536 0)" gradientUnits="userSpaceOnUse"><stop offset="0" style="stop-color:#d42351"/><stop offset=".07" style="stop-color:#e9416e"/></linearGradient><path style="fill:url(#SVGID_00000091703417143833833120000010356754809046694272_)" d="M364.6,321.61l160.47-92.57v70.38 l-99.88,57.4c-4.22,2.44-7.65,8.37-7.64,13.23l-60.59-35.21C356.95,329.98,360.38,324.05,364.6,321.61z"/><linearGradient id="SVGID_00000132783629844084579220000006789801254339836049_" x1="550.761" x2="529.744" y1="387.951" y2="351.547" gradientTransform="matrix(-1 0 0 1 915.6536 0)" gradientUnits="userSpaceOnUse"><stop offset="0" style="stop-color:#d42351"/><stop offset=".204" style="stop-color:#e9416e"/><stop offset=".684" style="stop-color:#e9416e"/><stop offset=".803" style="stop-color:#e03562"/><stop offset=".989" style="stop-color:#d42351"/></linearGradient><path style="fill:url(#SVGID_00000132783629844084579220000006789801254339836049_)" d="M339.65,355.51l11.15-6.44 c3.42-1.97,6.19-6.78,6.18-10.71l-0.01-3.54l60.59,35.21l0.01,3.54c0.01,3.93-2.76,8.73-6.18,10.71l-11.15,6.44 c-4.22,2.44-7.65,8.37-7.64,13.23l-60.59-35.21C332,363.88,335.42,357.95,339.65,355.51z"/><linearGradient id="SVGID_00000103957842403105766360000011717943792865064328_" x1="575.711" x2="554.695" y1="421.852" y2="385.45" gradientTransform="matrix(-1 0 0 1 915.6536 0)" gradientUnits="userSpaceOnUse"><stop offset="0" style="stop-color:#d42351"/><stop offset=".204" style="stop-color:#e9416e"/><stop offset=".684" style="stop-color:#e9416e"/><stop offset=".803" style="stop-color:#e03562"/><stop offset=".989" style="stop-color:#d42351"/></linearGradient><path style="fill:url(#SVGID_00000103957842403105766360000011717943792865064328_)" d="M314.7,389.41l11.14-6.43 c3.42-1.97,6.19-6.78,6.18-10.7l-0.01-3.54l60.59,35.21l0.01,3.54c0.01,3.93-2.76,8.73-6.18,10.7l-11.14,6.43 c-4.23,2.44-7.65,8.37-7.64,13.23l-60.59-35.21C307.05,397.79,310.47,391.85,314.7,389.41z"/><linearGradient id="SVGID_00000008836547957107405480000011200572558653742761_" x1="600.663" x2="579.645" y1="455.755" y2="419.351" gradientTransform="matrix(-1 0 0 1 915.6536 0)" gradientUnits="userSpaceOnUse"><stop offset="0" style="stop-color:#d42351"/><stop offset=".204" style="stop-color:#e9416e"/><stop offset=".684" style="stop-color:#e9416e"/><stop offset=".803" style="stop-color:#e03562"/><stop offset=".989" style="stop-color:#d42351"/></linearGradient><path style="fill:url(#SVGID_00000008836547957107405480000011200572558653742761_)" d="M289.75,423.32l11.14-6.43 c3.42-1.97,6.19-6.78,6.18-10.7l-0.01-3.54l60.59,35.21l0.01,3.54c0.01,3.93-2.76,8.73-6.18,10.7l-11.14,6.43 c-4.23,2.44-7.65,8.37-7.64,13.23l-60.59-35.21C282.1,431.69,285.52,425.76,289.75,423.32z"/><linearGradient id="SVGID_00000111907263879115241510000016428366379214048177_" x1="625.614" x2="604.597" y1="489.657" y2="453.255" gradientTransform="matrix(-1 0 0 1 915.6536 0)" gradientUnits="userSpaceOnUse"><stop offset="0" style="stop-color:#d42351"/><stop offset=".204" style="stop-color:#e9416e"/><stop offset=".684" style="stop-color:#e9416e"/><stop offset=".803" style="stop-color:#e03562"/><stop offset=".989" style="stop-color:#d42351"/></linearGradient><path style="fill:url(#SVGID_00000111907263879115241510000016428366379214048177_)" d="M264.8,457.22l11.14-6.43 c3.42-1.97,6.19-6.78,6.18-10.7l-0.01-3.54l60.59,35.21l0.01,3.54c0.01,3.93-2.76,8.73-6.18,10.7l-11.14,6.43 c-4.23,2.44-7.65,8.37-7.64,13.23l-60.59-35.21C257.15,465.59,260.57,459.66,264.8,457.22z"/><linearGradient id="SVGID_00000140737484862051686510000011174803714981195692_" x1="650.521" x2="629.533" y1="523.519" y2="487.165" gradientTransform="matrix(-1 0 0 1 915.6536 0)" gradientUnits="userSpaceOnUse"><stop offset="0" style="stop-color:#d42351"/><stop offset=".204" style="stop-color:#e9416e"/><stop offset=".684" style="stop-color:#e9416e"/><stop offset=".803" style="stop-color:#e03562"/><stop offset=".989" style="stop-color:#d42351"/></linearGradient><path style="fill:url(#SVGID_00000140737484862051686510000011174803714981195692_)" d="M239.9,491.09l11.08-6.4 c3.42-1.97,6.19-6.78,6.18-10.7l-0.01-3.54l60.59,35.21l0.01,3.54c0.01,3.93-2.76,8.73-6.18,10.7l-11.08,6.4 c-4.23,2.44-7.65,8.37-7.64,13.23l-60.59-35.21C232.25,499.46,235.68,493.53,239.9,491.09z"/><linearGradient id="SVGID_00000039101473937117389840000013172289862552534180_" x1="675.458" x2="654.441" y1="557.429" y2="521.026" gradientTransform="matrix(-1 0 0 1 915.6536 0)" gradientUnits="userSpaceOnUse"><stop offset="0" style="stop-color:#d42351"/><stop offset=".204" style="stop-color:#e9416e"/><stop offset=".684" style="stop-color:#e9416e"/><stop offset=".803" style="stop-color:#e03562"/><stop offset=".989" style="stop-color:#d42351"/></linearGradient><path style="fill:url(#SVGID_00000039101473937117389840000013172289862552534180_)" d="M214.95,524.99l11.14-6.43 c3.42-1.97,6.19-6.78,6.18-10.7l-0.01-3.54l60.59,35.21l0.01,3.54c0.01,3.93-2.76,8.73-6.18,10.7l-11.14,6.43 c-4.23,2.44-7.65,8.37-7.64,13.23l-60.59-35.21C207.3,533.36,210.73,527.43,214.95,524.99z"/><g><polygon points="210.53 617.23 149.94 582.02 149.94 583.7 210.53 618.91" class="st1846"/></g><path d="M261.73,587.67c3.42-1.97,6.19-6.78,6.18-10.7l-0.01-3.54c-0.01-4.85,3.41-10.79,7.64-13.23l11.14-6.43 c3.42-1.97,6.19-6.78,6.18-10.7l-0.01-3.54c-0.01-4.85,3.41-10.79,7.64-13.23l11.08-6.4c3.42-1.97,6.19-6.78,6.18-10.7 l-0.01-3.54c-0.01-4.85,3.41-10.79,7.64-13.23l11.14-6.43c3.42-1.97,6.19-6.78,6.18-10.7l-0.01-3.54 c-0.01-4.85,3.41-10.79,7.64-13.23l11.14-6.43c3.42-1.97,6.19-6.78,6.18-10.7l-0.01-3.54c-0.01-4.85,3.41-10.79,7.64-13.23 l11.14-6.43c3.42-1.97,6.19-6.78,6.18-10.7l-0.01-3.54c-0.01-4.86,3.41-10.79,7.64-13.23l11.15-6.44 c3.42-1.97,6.19-6.78,6.18-10.71l-0.01-3.54c-0.01-4.85,3.41-10.79,7.64-13.23l99.88-57.4l0,1.68l-99.88,57.4 c-3.42,1.97-6.19,6.78-6.18,10.7l0.01,3.54c0.01,4.86-3.41,10.79-7.64,13.23l-11.15,6.44c-3.42,1.97-6.19,6.77-6.18,10.7 l0.01,3.54c0.01,4.85-3.41,10.79-7.64,13.23l-11.14,6.43c-3.42,1.97-6.19,6.78-6.18,10.7l0.01,3.54 c0.01,4.85-3.41,10.79-7.64,13.23l-11.14,6.43c-3.42,1.97-6.19,6.78-6.18,10.7l0.01,3.54c0.01,4.85-3.41,10.79-7.64,13.23 l-11.14,6.43c-3.42,1.97-6.19,6.78-6.18,10.7l0.01,3.54c0.01,4.85-3.41,10.79-7.64,13.23l-11.08,6.4 c-3.42,1.97-6.19,6.78-6.18,10.7l0.01,3.54c0.01,4.85-3.41,10.79-7.64,13.23l-11.14,6.43c-3.42,1.97-6.19,6.78-6.18,10.7 l0.01,3.54c0.01,4.85-3.41,10.79-7.64,13.23l-51.21,29.57l0-1.68L261.73,587.67z" class="st1249"/><linearGradient id="SVGID_00000010312403775319061530000011545882800737573017_" x1="722.028" x2="688.615" y1="607.476" y2="549.603" gradientTransform="matrix(-1 0 0 1 915.6536 0)" gradientUnits="userSpaceOnUse"><stop offset=".204" style="stop-color:#e9416e"/><stop offset=".684" style="stop-color:#e9416e"/><stop offset=".803" style="stop-color:#e03562"/><stop offset=".989" style="stop-color:#d42351"/></linearGradient><path style="fill:url(#SVGID_00000010312403775319061530000011545882800737573017_)" d="M201.15,552.46 c3.42-1.97,6.19-6.78,6.18-10.7l-0.01-3.54l60.59,35.21l0.01,3.54c0.01,3.93-2.76,8.73-6.18,10.7l-51.21,29.57l-60.59-35.21 L201.15,552.46z"/></g></g><g id="woman2_00000157294426457514997950000013791719806316893098_"><path d="M371.76,382.19c-2.06-1.75-12.21-1.39-17.03,2.25c-2.7,2.04-1.42,7.39-4.9,8.59 c-16.12,5.54-22.03,10.27-18.76,13.4c3.01,2.88,16.21-0.39,29.44-6.28c3.4-1.51,3.86-8.49,6.35-10.18 C371.59,386.77,374.79,384.76,371.76,382.19z" class="st17"/><g><path d="M329.71,398.42c2.18-0.72,2.9-1.2,5.82-1.21c0.88,0,4.25-0.25,5.32,1.53c1.01,1.68-1.12,3.3-1.88,3.6 c-2.59,1.01-4.61,0.75-7.34,1.04c-0.51,0.05-3.25,0.45-4.43,0.34c-0.78-0.07-2.24-0.08-3.11-2.22c-0.89-2.18,0.75-3.16,1.7-3.31 C326.68,398.05,327.95,399.01,329.71,398.42z" class="st1259"/><path d="M324.42,398.76c-0.01,0,2.25-3.96,2.25-3.96c0.3-0.6,1.24-0.73,1.82-0.81c0.83-0.12,1.74-0.33,3.35-0.43 c0.92-0.06,0.87,1.8,3.67,2.07c3.51,0.34,4.75,0.04,5.42,1.41c0.22,0.44,0.35,0.76,0.34,1.11c0,0.02-0.02,0.29-0.03,0.42 c-0.03,0.86-0.22,1.73-2.15,2.54c-2.51,1.05-4.51,0.73-7.18,1.01c-0.5,0.05-3.18,0.44-4.33,0.34c-0.76-0.07-2.19-0.08-3.07-2.12 C324.21,399.61,324.23,399.11,324.42,398.76z" class="st702"/></g><g><path d="M361.4,380.11c1.87-1.34,2.42-2.01,5.2-2.88c0.84-0.26,3.99-1.5,5.53-0.12c1.46,1.3-0.09,3.49-0.73,3.99 c-2.17,1.73-4.18,2.09-6.7,3.17c-0.47,0.2-2.97,1.39-4.13,1.64c-0.77,0.16-2.17,0.59-3.63-1.2c-1.5-1.82-0.22-3.24,0.64-3.66 C358.4,380.66,359.89,381.19,361.4,380.11z" class="st1259"/><path d="M356.45,382c-0.01,0,0.98-4.45,0.98-4.45c0.11-0.66,0.97-1.06,1.5-1.32c0.75-0.36,1.57-0.83,3.07-1.41 c0.86-0.33,1.78,0.91,4.58,0.62c1.48-0.16,3.52-1.08,5.14,0.01c0.4,0.27,0.56,0.62,0.66,0.96c0.01,0.02,0.06,0.28,0.1,0.41 c0.22,0.83,0.3,1.72-1.3,3.06c-2.08,1.75-4.09,2.03-6.56,3.1c-0.46,0.2-2.9,1.36-4.04,1.61c-0.75,0.16-2.12,0.58-3.56-1.12 C356.5,382.87,356.37,382.39,356.45,382z" class="st702"/></g><g><path d="M376.47,251.1c0.45-0.05,4.02-2.45,4.48-2.42c1.11,0.06,1.72,1.52,1.8,2.04 c0.35,2.11-1.44,3.98-2.09,4.55c-0.72,0.63-2.12,1.94-3.88,2.22c-0.44,0.07-0.8,0.19-1.14,0.34c-0.01,0.03-0.01,0.04-0.01,0.04 s-5.49,3.51-6.3,4c-4.57,2.75-8.23,4.47-12.29,6.29c-2.9,1.3-5.93,1.57-7.04,0.9c-1.92-1.14,0.27-4.74,0.27-4.74 s2.06-2.13,3.77-2.65c4.62-1.42,7.09-2.61,9.73-3.55c3.4-1.21,6.58-2.53,7.89-3.08c0.38-0.22,0.6-0.33,0.71-0.54L376.47,251.1z" class="st1261"/><path d="M324.24,255.14c0.89-1.22,5.58-1.13,7.26-0.43c0.42,0.18,20.72,6.75,21.2,6.92 c3.82,1.39,1.92,9.32-0.68,8.75c-3.41-0.75-23.21-7.84-23.9-8.16c-2.12-0.99-3.72-1.95-4.17-3.4 C323.38,256.93,323.34,256.36,324.24,255.14z" class="st1848"/></g><path d="M324.6,306.75c2.77-2.95,13.14,3.92,14.28,4.38c5.46,2.23,15.59,13.02,21.45,19.64 c2.08,2.36,3.3,4.27,3.62,7.18l0.07-0.02c0,0.3,0,0.63,0,1.01c0,0.01,0,0.02,0,0.03c-0.06,7.36-1.39,28.53-0.21,36.61 c0.13,0.85,0.54,3.01-2.42,3.88c-2.86,0.85-4.69,0.34-4.83-1.38c-0.11-1.39-1.5-21.62-1.92-27.89c-0.46-6.91-0.51-8.5-1.31-9.48 c-2.8-3.22-6.45-6.57-12.12-9.35c-5.17-2.54-8.64-4.61-11.35-6.95c-3.04-2.61-4.54-6.3-5.14-8.24 C323.57,312.46,323.41,308.01,324.6,306.75z" class="st1849"/><path d="M329.68,366.83c0.41-4.78,3.48-28.52,3.63-33.91c0.17-6.15-2.57-12.56-2.2-18.36 c0.19-3.04,1.13-5.62,3.07-6.64c1.77-0.93,4.42-2,6.56-1.9c2.6,0.11,12.27,1.5,12.42,6.65c0.03,0.92-1.15,7.71-2.1,11.09 c-0.81,2.88-5.73,22.58-8.47,31.3c-1.08,4.2-2.53,8.63-3.45,13.23c-1.05,5.28-4.28,17.82-5.51,26.65c0,0-0.1,3.52-4.05,3.8 c-3.39,0.24-3.7-2.66-3.7-2.66S329.08,373.87,329.68,366.83z" class="st1850"/><g><path d="M323.81,278.97c-1.05-6.16-1.81-17.47-0.64-20.24c0,0,0.52-4.05,3.85-4.51c1.09-0.15,3.35,0.62,4.23,0.97 c2.64,1.03,7.01,2.64,9.6,3.95c2.88,1.46,6.77,4.45,9.65,5.98c0.18,0.09,1.26,1.16,1.51,1.67c1.84,3.73,2.14,9.8,5.54,15.68 c1.14,1.97-1.07,4.75-2.38,5.74c-4.63,3.53-3.31,10.9-2.81,14.54c0.25,1.83,0.7,5.55,1.19,9.22c0.2,1.51-6.24,2.51-6.24,2.51 c-2.56,0.61-5.89,1.31-11.67,0.58c-3.69-0.47-11.63-3.14-12.3-5.53c-0.45-1.62,0.24-5.33,0.77-9.14 C324.25,299.53,325.55,289.17,323.81,278.97z" class="st702"/><g><g><path d="M364.41,318.71c0,0,1.04,0.16,2.15-0.8c1.34-1.15,0.38-2.84,0.38-2.84s-2.02-4.63-4.03-8.89 c-1.27-2.7-3.14-5.55-5.12-10.29c-0.73-1.75-2.71-4.24-2.71-4.24s-4.18-1.06-5.19,1.09c-0.59,1.25,0.17,4.55,1.85,7.48 c2.34,4.1,4.39,7.68,7.78,12.23C360.12,313.26,364.41,318.71,364.41,318.71z" class="st1851"/><path d="M373.1,316.99c-1.11-1.07-3.95-0.99-5.3-1.58c-0.5-0.22-1.39-1.77-1.48-1.76 c-0.43,0.07-3.66,2.23-3.51,2.45c0.82,1.18,1.42,2.15,1.77,3.47c0.48,1.84,2.02,3.18,2.76,3.88c0.67,0.63,2.84,2.33,5.04,1.74 c0.54-0.14,2.02-0.94,1.97-2.12c-0.02-0.49-2.94-4.02-3.03-4.49c-0.04-0.17,0.81-0.49,1.38,0.27c1.25,1.66,2.19,1.2,2.09,0.91 C374.45,318.78,373.6,317.47,373.1,316.99z" class="st1851"/></g><path d="M350.15,264.74c2.54,0.87,2.96,2.62,3.39,5.34c0.07,0.46,2.3,16.65,3.12,20.29 c0.65,2.87-7.51,7.55-8.2,3.67c-0.65-3.68-3.34-21.75-3.34-22.51c0.01-2.42-0.09-4.29,0.97-5.38 C347.48,264.74,349.35,264.46,350.15,264.74z" class="st1852"/></g><g><path d="M333.32,257.16l1.23-9.67l9.35,3.55l-1.54,8.81c-0.03,0.19-0.21,0.33-0.41,0.3 c-0.77-0.1-2.23,0.23-5.81-0.94C334.52,258.68,333.42,257.73,333.32,257.16z" class="st1261"/><path d="M330.55,241.46c0.7,9.25,8.81,7.55,8.74,8.13c-0.1,0.86,0.41,1.28,0.81,1.44 c0.35,0.15,0.82-0.06,1.06-0.21c0.36-0.23-0.31,1.14,1.42,2.71c1.83,1.66,4.65,1.67,5.01,0.18c0.27-1.1,0.68-2.34,1.09-3.18 c0.38-0.75-0.01-1.2,0.21-2.01c0.24-0.86,1.36-0.89,1.39-1.77c0.03-0.72-1.62-3.1-1.79-3.63c-0.14-0.43,0.48-1.61,0.43-2.06 c-0.54-4.33-0.59-7.28-6.78-8.11C334.76,231.96,330.08,235.27,330.55,241.46z" class="st1853"/><path d="M327.16,245.52c-0.33-2.11,0.06-5.38,0.86-7.9c1.49-4.71,5.13-6.52,10.11-6.42 c5.2,0.1,8.45,0.97,10.2,4.11c0.19,0.34,0.47,1.88,0.46,2.37c0.11,0.98,0.26,2.67-0.95,5.42c-1.78,4.05-4.66,4.2-5.07,4.68 c-0.21,0.25,0.17-2.58-0.25-3.5c-0.36-0.8-0.93-1.1-1.47-1.07c-1.4,0.08-1,1.37-1.17,5.38c-0.15,3.47-3.36,4.43-5.16,4.22 C331.84,252.5,327.83,249.77,327.16,245.52z" class="st1854"/><path d="M333.32,240.4c-0.09,2.39-2.1,4.25-4.48,4.16c-2.39-0.09-4.25-2.1-4.16-4.48 c0.09-2.39,2.1-4.25,4.48-4.16C331.55,236.01,333.41,238.02,333.32,240.4z" class="st1855"/><path d="M325.15,239.25c0,0-9.3-0.74-9.94,9.92c-0.64,10.66-3.4,11.72-3.4,11.72s4.28,4.27,8.9,1.76 c4.62-2.5,6.46-3.79,6.02-10.65c-0.44-6.86,0.32-10.03,1.85-10.35C330.09,241.35,328.22,238.9,325.15,239.25z" class="st1854"/></g></g></g><g id="man3_00000169559863057606168460000001933960890747113606_"><path d="M215.88,585.6c4.79,6.85-22.77,17.38-26.4,12.07c-8.33-12.17-26-2.28-27.94-13.39 c-1.13-6.45,26.95-13.31,30.81-7.53C198.31,585.7,212.58,580.87,215.88,585.6z" class="st17"/><g><path d="M158.65,470.51c0,0,7.53-18.13,7.53-18.13l5,1.26l-6.38,20.58c-1.33,2.26,1.08,22.14,1.08,22.14 c0.01,0.05,0.05,0.34,0.15,0.64c0.36,1.14,1.33,1.39,2.28,2.35c0.44,0.33,0.78,0.68,0.98,0.92c0.32,0.4,0.68,1.54,0.84,2.04 c0.37,1.19,0.93,1.92,0.28,1.8c-0.62-0.11-0.99-0.28-1.52-1.43c-0.06-0.13-0.8-0.99-0.91-1.09c-0.2,0.64,0.21,2.89,0.27,3.46 c0.17,1.73-0.42,3.72-1.35,3.66c-0.49-0.03-1.7-0.67-2.54-1.19c-0.84-0.52-1.61-2.8-1.81-3.49c-0.64-2.18-0.98-2.94-0.9-4.31 c0.04-0.65,0.14-1.43-0.05-2.74c-0.07-0.31-1.6-6.97-3.48-16.02c-0.49-2.37-0.48-6.52-0.48-6.52 C157.64,473.84,157.69,472.19,158.65,470.51z" class="st1261"/><path d="M172.63,464.17c0.24-0.31,2.77-8.38,3.55-10.02c0.88-1.82,0.63-4.92-0.4-5.89 c-1.04-0.97-3.12-1.79-5.45-1.01c-1.32,0.45-3.48,2.16-4.46,4.13c-1.35,2.71-2.26,4.86-4.05,9.17c0,0,1.64,2.23,6.72,3.38 C170.56,464.4,172.63,464.17,172.63,464.17z" class="st681"/></g><g><path d="M192.42,585.54c2.52-1.14,3.31-1.78,6.94-2.28c1.08-0.15,4.66-0.85,5.98,0.91 c1.17,1.56-1.23,3.46-2.06,3.85c-2.79,1.32-4.49,1.29-7.49,1.97c-0.56,0.13-1.59,1.16-2.94,1.33c-2.48,0.31-4.67,0.57-6.42-1.2 c-1.94-1.96-0.11-3.85,1.02-4.16C188.54,585.66,190.43,586.45,192.42,585.54z" class="st1259"/><path d="M187.3,581.97c0.44-0.67,1.38-1.12,2.15-1.33c1.08-0.3,2.26-0.73,4.41-1.14 c1.23-0.23,2.13,1.96,5.77,1.46c1.08-0.15,4.39-0.29,5.63,1.32c0.36,0.47,0.52,1.08,0.52,1.08s0.06,0.43,0.05,0.58 c-0.04,0.9-0.26,1.82-2.44,2.92c-2.76,1.39-4.49,1.28-7.49,1.97c-0.56,0.13-3.52,0.91-4.87,1c-0.9,0.06-2.55,0.29-4.3-1.48 c-0.66-0.67-0.73-1.16-0.64-1.55C186.08,586.8,186.2,583.66,187.3,581.97z" class="st702"/></g><g><path d="M170.53,581.18c2.51-1.17,3.29-1.82,6.92-2.35c1.08-0.16,5.14-1.24,6.09,0.75 c1.02,2.16-1.16,3.55-2.02,3.88c-3.23,1.22-4.67,1.3-7.66,2.35c-0.54,0.19-1.52,0.81-2.83,1.15c-2.33,0.61-5.06,0.4-6.3-1.05 c-0.95-1.11,0.09-3.68,0.09-3.68C165.93,582.05,168.55,582.1,170.53,581.18z" class="st1259"/><path d="M164.69,582.4c0,0,0.38-2.65,1.09-3.7c1-1.46,3.97-3.15,6.12-3.58c1.23-0.25,2.15,1.93,5.78,1.4 c1.08-0.16,4.47-0.43,5.74,1.16c0.4,0.5,0.53,1.07,0.53,1.07s0.06,0.43,0.06,0.58c-0.03,0.9-0.24,1.83-2.41,2.95 c-2.74,1.42-4.58,1.43-7.57,2.15c-0.55,0.13-3.51,0.94-4.86,1.05c-0.9,0.07-2.89,0.15-4.12-1.25 C164.44,583.52,164.69,582.4,164.69,582.4z" class="st702"/></g><g><path d="M165.94,578.51c0.11-1.15,4.13-34.77,4.72-39.61c0.3-4.21-0.26-12.32-0.43-19.68 c-0.12-5.27-0.99-8.1-0.9-12.74c0.07-3.85,0.88-9.59,1.73-11.03c0.78-1.33,3.97-0.93,5.53-0.87c2.6,0.1,8.03,2.39,8.53,5.63 c0.84,5.38-0.54,5.55-1.24,13.16c-0.9,9.68-1.01,21.72-2.55,28.69c0,0-1.04,5.57-1.65,8.8c-0.63,3.34-3.83,18.94-4.99,25.2 c-0.14,0.76-0.9,3.26-4.02,3.75C165.79,580.56,165.88,579.16,165.94,578.51z" class="st1849"/><path d="M177.95,498.63c0,0,16.51-1.12,18.95-0.38c0.69,0.21,3.83,9,4.5,12.32c1.14,5.6,3.4,13.25,4.77,20.56 c0.54,2.89,1.85,8.24,1.21,12.33c-1.71,8.3-10.8,31.15-11.43,38.03c0,0-1.01,3.1-4.46,3c-5.87-0.17-3.86-3.59-3.86-3.59 s6.73-33.14,8.33-39.71c-0.51-5.31-8.14-21.06-9.15-23.69c-1.58-4.11-4.77-3.34-7.17-7.55 C177.77,506.69,177.95,498.63,177.95,498.63z" class="st1850"/></g><g><path d="M167.55,454.89c0.37-2.7,1.55-5.36,3.04-6.56c0.86-0.7,2.1-1.28,3.95-1.28c1.03,0,10.12,1.77,12.56,2.97 c3.27,1.6,8.05,6.4,9.57,8.08c1.21,1.35,2.16,3.82,2.31,4.43c1.13,4.59-0.2,10.98-0.87,16.38c-0.44,3.54,0.81,9.11,0.79,14.63 c-0.01,3.26,0.59,7.09-0.53,8.14c-1.48,1.4-4.44,2.58-8.44,3.15c-3.86,0.54-7.72,0.86-12.56-0.6c-4.38-1.32-7.03-3.23-8.03-4.98 c-1.4-2.44-1.21-6.62-1.79-11.6C166.37,477.74,166.03,466.1,167.55,454.89z" class="st1836"/><g><path d="M178.97,437.84l10.31,5.17l-0.72,7.9c-0.01,0.55-0.97,1.18-2.88,1.37c-2.31,0.23-6.76-0.23-6.71-3.69 C178.98,447.75,178.97,437.84,178.97,437.84z" class="st1261"/><path d="M174.42,433.71c1.63,10,10.3,7.38,10.28,8.01c-0.03,0.94,0.57,1.36,1.02,1.49 c0.4,0.12,0.88-0.14,1.13-0.33c0.38-0.29-0.23,1.27,1.8,2.81c2.15,1.63,5.22,1.38,5.47-0.28c0.19-1.22,0.52-2.62,0.89-3.57 c0.34-0.86-0.12-1.31,0.04-2.2c0.18-0.96,1.4-1.1,1.34-2.06c-0.04-0.79-2.05-3.22-2.29-3.78c-0.2-0.45,0.38-1.8,0.27-2.29 c-0.99-4.66-1.32-7.86-8.14-8.18C178.12,422.97,173.33,427.03,174.42,433.71z" class="st1853"/><path d="M174.3,427.77c1.24-2.28,2.16-4.43,5.8-5.03c5.44-0.9,9.59,0.15,11.01,0.84 c4.23,2.05,5.21,7.65,3.16,6.1c-1.57-1.19-4.78,0.21-5.05,0.42c0.08,0.05,0.17,0.08,0.23,0.15c2.08,2.61-0.18,3.57,0.17,5.25 c0.26,1.27,0.13,1.9-0.33,2.31c-0.93,0.84-1.92,0.8-1.92,0.8s0.41-0.54,0.54-1.67c0.12-1.08-0.55-1.9-1.92-1.67 c-0.95,0.16-2.44,1.12-1.33,5.99c0.68,3-4,3.65-5.12,3.53c-1.36-0.14-2.13-0.73-2.69-2.3c-1.09-3.08-2.46-3.28-3.44-5.93 C172.41,433.83,173.11,429.97,174.3,427.77z" class="st1259"/></g><path d="M189.88,484.46c0.01,0,1.58-18.59,1.58-18.59l8.12,0.47l-2.07,18.7c0.04,1.11,0.4,3.15,2.68,6.85 c2.48,4.02,6.4,9.92,8.14,12.55c0.13,0.17,0.33,0.43,0.49,0.58c0.98,0.92,1.73,0.67,3.2,1.09c0.61,0.09,1.14,0.23,1.47,0.37 c0.53,0.21,1.51,1.13,1.94,1.54c1.02,0.97,1.97,1.37,1.27,1.61c-0.66,0.23-0.93,0.39-2.25-0.2c-0.14-0.06-1.35-0.9-1.51-0.94 c0.16,0.74,1,1.8,1.51,2.18c1.25,0.93,3.95,3.37,2.52,3.82c-0.53,0.16-3.43,0.77-4.54,0.72c-1.11-0.05-3.15-0.61-3.73-1.17 c-1.83-1.79-2.76-2.83-3.24-3.66c-0.37-0.64-0.68-1.9-1.33-3.06c-2.38-3.11-9.83-11.57-12.07-14.79 C189.37,488.67,189.88,484.46,189.88,484.46z" class="st1853"/><path d="M199.86,474.94c0.14-2.12,0.18-8.07,0.31-10.78c0.12-2.59-1.5-4.75-2.85-5.19 c-1.1-0.36-2.24-0.56-3.84,0.38c-1.23,0.72-1.94,1.89-2.67,4.08c-0.22,0.68-1.36,6.14-1.62,10.54c0,0,2.18,1.67,7.85,1.8 C199.03,475.82,199.86,474.94,199.86,474.94z" class="st681"/></g></g><g id="man2_00000011029534014592592770000001654215027096966842_"><path d="M312.08,473.53c-4.05,3.4-10.78,6.23-21.56,11.75c-5.17,2.64-3.86,10.14-6.18,10.85 c-12.01,3.63-20.85-2.08-11.25-7.81c3.4-2.03-0.74-6.04,5.58-10.71c2.22-1.64,5.32-3.91,9.91-7.19 C297.06,464.36,325.64,462.16,312.08,473.53z" class="st17"/><g><path d="M280.55,349.48c0,0,4.25-6.31-0.75-7.68c-3.96-1.08-7.07,4.46-7.07,4.46l-9.28,16.85 c-0.4,0.8-1.08,3.14-1.14,3.76c-0.2,2.04-0.15,4.09,0,6.48c0.68,11.48,1.61,16.49,1.61,16.49s0.2,1.22,2.81,1.14 c2.39-0.07,2.51-0.96,2.51-0.96s-0.34-14.32,0.6-22.84L280.55,349.48z" class="st1836"/><g><path d="M268.86,398.74c0.1-0.56,0.29-2.81,0.65-3.38c0.08,0.13,0.56,1.14,0.58,1.28 c0.2,1.24,0.51,1.5,1.07,1.77c0.59,0.28,0.24-0.56,0.2-1.8c-0.02-0.52-0.06-1.71-0.26-2.17c-0.12-0.29-0.36-0.71-0.69-1.14 c-0.66-1.17-1.61-1.74-1.66-2.92c-0.01-0.31-0.11-0.55-0.51-0.73c-0.22-0.09-2.51-0.52-3.65,0.12 c-0.51,0.29,0.21,0.47-0.63,2.15c-0.61,1.22-0.31,2.1-0.27,4.36c0.01,0.71,0.15,3.09,0.81,3.81c0.66,0.72,1.65,1.64,2.11,1.8 C267.48,402.19,268.57,400.44,268.86,398.74z" class="st159"/></g></g><g><path d="M293.78,470.87c2.47-1.18,3.25-1.84,6.84-2.4c1.07-0.17,5.37-1.62,6.33,0.34 c1.04,2.13-1.4,3.87-2.25,4.2c-3.19,1.25-4.62,1.33-7.57,2.41c-0.53,0.19-1.5,0.82-2.79,1.17c-2.31,0.63-4.97,0.42-6.1-1.07 c-0.88-1.16-0.1-3.56-0.1-3.56C289.23,471.78,291.83,471.8,293.78,470.87z" class="st1257"/><path d="M288.01,472.14c0,0,0.35-2.64,1.05-3.68c0.98-1.46,3.9-3.16,6.03-3.61c1.21-0.26,2.16,1.89,5.75,1.33 c1.07-0.17,4.42-0.47,5.71,1.09c0.4,0.49,0.54,1.06,0.54,1.06s0.06,0.43,0.06,0.58c-0.02,0.9-0.22,1.81-2.36,2.95 c-2.7,1.43-4.53,1.47-7.48,2.21c-0.55,0.14-3.47,0.97-4.81,1.1c-0.89,0.08-2.87,0.18-4.1-1.2 C287.77,473.25,288.01,472.14,288.01,472.14z" class="st1854"/></g><g><path d="M273.27,472.94c2.7,0.39,3.71,0.3,6.98,1.75c0.97,0.43,6.24,0.89,5.75,2.85 c-0.49,1.95-2.58,3.2-4.94,2.94c-3.11-0.34-4.61-1.43-7.46-2.41c-0.53-0.18-1.84,0.01-3.04-0.54c-2.22-1.01-3.75-1.84-4.34-3.42 c-0.84-2.25,1.63-3.68,2.73-3.35C270,471.08,271.13,472.63,273.27,472.94z" class="st1257"/><path d="M271.02,467.6c0.75-0.25,1.76-0.16,2.5,0.06c1.05,0.32,2.17,1.06,4.17,1.83 c1.14,0.44,0.13,2.14,3.4,3.59c0.97,0.43,2.8-0.15,4.22,1.26c0.74,0.74,1.58,2.73-0.1,4.11c-0.66,0.55-1.89,1.26-4.29,0.97 c-2.48-0.3-3.74-1.23-6.59-2.21c-0.53-0.18-3.13-1.24-4.3-1.84c-0.78-0.4-2.54-1.12-3.18-3.32c-0.15-0.52,0.28-0.89,0.51-1.35 C267.35,470.71,268.71,468.39,271.02,467.6z" class="st1854"/></g><g><path d="M276.49,392.39c0.41-1.47,3.38-1.27,4.89-1.62c2.52-0.57,8.3,0.25,9.61,3.22 c2.18,4.94,0.9,5.45,2.16,12.93c1.61,9.5,4.24,19.09,4.54,26.16l-0.13,0c0.06,2.25,0.14,6.31,0,8.58 c-0.22,3.36-0.09,18.73-0.47,25.03c-0.05,0.76,0.16,3.42-3.73,4.24c-4.8,1.01-4.52-1.96-4.54-2.6 c-0.04-1.23-2.17-35.52-2.16-35.56c-0.78-4.11-3.07-9.76-5.11-16.77c-1.46-5.02-3.09-8.15-4.19-12.62 C276.46,399.68,276.04,393.98,276.49,392.39z" class="st1253"/><path d="M270.6,467.46c0,0,19.12-30.33,21.99-34.37c-0.1-7.64-2.98-19-3.13-21.61c-0.26-4.36-2.69-4.3-4.22-8.86 c-1.89-5.64-0.66-11.62-0.66-11.62s16.7,1.02,18.79,2.45c0.59,0.4,1.01,13.36,1.11,19.39c0.04,2.41,0.06,4.18,0.41,13.5 c0.15,4.07,0.03,8.07-1.05,9.87c-4.47,7.12-22.33,28.31-25.32,34.49c0,0-0.42,2.05-3.71,1.35 C269.12,470.84,270.6,467.46,270.6,467.46z" class="st1257"/></g><g><path d="M273.98,349.61c0.14-2.7,1.54-5.31,3.01-6.51c0.85-0.69,2.08-1.27,3.91-1.27 c1.03,0,10.03,1.76,12.46,2.94c3.24,1.58,7.96,6.54,9.46,8.21c1.2,1.34,2.16,3.6,2.31,4.2c1.12,4.55-0.2,10.89-0.87,16.24 c-0.44,3.51-0.89,5.49-0.91,10.96c-0.01,3.24,0.32,5.59,0.07,8.3c-0.18,2.01-4.29,2.71-8.26,3.27 c-3.82,0.54-7.59,0.56-12.39-0.89c-4.34-1.31-6.36-2.43-6.49-3.28c-0.52-3.41-0.16-10.47-0.4-15.43 C275.31,364.06,273.47,359.57,273.98,349.61z" class="st702"/><g><path d="M285.39,336.17l10.23,0.28l-0.71,9.21c-0.01,0.54-0.96,1.17-2.86,1.36c-2.29,0.22-6.71-0.22-6.66-3.66 C285.41,342.54,285.39,336.17,285.39,336.17z" class="st701"/><path d="M280.65,328.13c1.61,9.92,10.21,7.32,10.19,7.95c-0.03,0.94,0.57,1.34,1.01,1.48 c0.4,0.12,0.88-0.14,1.13-0.33c0.37-0.28-0.22,1.26,1.78,2.79c2.13,1.62,5.17,1.37,5.42-0.28c0.18-1.21,0.51-2.6,0.89-3.54 c0.34-0.85-0.12-1.3,0.04-2.19c0.18-0.95,1.39-1.09,1.33-2.04c-0.04-0.78-2.03-3.19-2.27-3.74c-0.19-0.45,0.37-1.78,0.27-2.27 c-0.98-4.62-1.31-7.8-8.08-8.11C284.32,317.47,279.57,321.49,280.65,328.13z" class="st159"/><path d="M280.65,322.4c0.29-0.54,0.08-1.76,0.38-2.27c0.37-0.63,1.25-0.53,1.77-1.04c0.43-0.41,0.66-1.15,1.29-1.44 c0.53-0.24,1.42-0.06,2.16-0.19c0.71-0.12,1.3-0.66,2-0.68c0.62-0.01,1.35,0.48,1.94,0.53c0.64,0.04,1.13-0.42,1.72-0.34 c0.51,0.07,1.14,0.67,1.6,0.75c0.63,0.1,1.08-0.31,1.58-0.24c0.66,0.09,1.33,0.62,1.71,0.55c0.32-0.06,2.07-0.34,2.6,1 c0.16,0.41,0.14,1.42-0.32,1.66c-0.57,0.3,0.59,1.2-0.12,1.91c-0.59,0.6-0.92,0.86-1.73,0.98c-1.83,0.26-2.28,1.92-1.87,2.36 c1.94,2.1-0.15,2.25,0.2,3.89c0.26,1.23,0.77,2.09,0.04,2.83c-0.86,0.87-2.06,0.59-2.15,0c-0.08-0.52,0.35-0.89,0.46-1.42 c0.2-1.04-0.54-1.85-1.88-1.62c-0.92,0.16-2.32,1.09-1.26,5.85c0.17,0.78,0.49,1.41,0.32,2c-0.18,0.65-1.62,0.54-2.08,0.98 c-0.48,0.46-0.31,1.52-0.95,1.77c-0.83,0.33-1.84-0.24-2.65-0.23c-0.93,0.01-1.62,0.55-2.03,0.19 c-1.07-0.94-0.36-1.53-0.53-2.21c-0.21-0.83-1.15-0.74-1.46-1.43c-0.25-0.55,0.03-1.87-0.22-2.4c-0.23-0.5-0.97-0.6-1.2-1.12 c-0.22-0.52,0.06-1.47-0.15-2.05c-0.25-0.67-1.21-1.62-1.27-2.39c-0.07-0.89,0.8-1.61,0.93-2.51c0.12-0.77-0.38-1.61-0.15-2.29 C279.54,323.23,280.42,322.83,280.65,322.4z"/></g><g><path d="M290.05,397.03c-1.8,0-3.74-0.23-5.29-0.43c-3.93-0.51-6.76-1.93-8.51-3.2 c-0.13-0.1-0.34-0.97-0.34-1.75c0-0.98,0.14-1.55,0.14-1.55c0.03,0.04,2.79,3.28,9.03,4.1c6.71,0.87,14.04-0.08,18.46-2.48 c0,0,0.22,0.49,0.23,1.39c0,0.76-0.08,1.24-0.08,1.24C299.87,396.06,294.33,397.03,290.05,397.03z" class="st1854"/><path d="M279.32,395.41L279.32,395.41c-0.29-0.03-0.49-0.29-0.46-0.58l0.25-2.17c0.03-0.29,0.29-0.49,0.58-0.46 l0,0c0.29,0.03,0.49,0.29,0.46,0.58l-0.25,2.17C279.86,395.24,279.6,395.44,279.32,395.41z" class="st1257"/><path d="M301.83,395.44L301.83,395.44c-0.29,0.04-0.55-0.17-0.59-0.45l-0.28-2.17 c-0.04-0.29,0.17-0.55,0.45-0.59l0,0c0.29-0.04,0.55,0.17,0.59,0.45l0.28,2.17C302.32,395.14,302.11,395.41,301.83,395.44z" class="st1257"/><path d="M289.14,397.33L289.14,397.33c-0.29-0.01-0.51-0.26-0.5-0.54l0.09-2.19c0.01-0.29,0.26-0.51,0.54-0.5h0 c0.29,0.01,0.51,0.26,0.5,0.54l-0.09,2.19C289.67,397.12,289.43,397.34,289.14,397.33z" class="st1257"/></g><path d="M285.39,341.17c0,0,0.35,0.83,2.26,1.34c5.22,1.39,7.48,0.72,7.48,0.72l1,3.36c0,0-1.54,1.08-4.18,1.27 c-1.98,0.14-4.15-0.36-6.06-1.61c-1.9-1.24-2.12-2.14-2.12-2.14L285.39,341.17z" class="st1836"/><path d="M320.43,393.94c-1.87-2.38-6.6-8.05-9.43-11.9c-2.37-3.22-3.27-4.9-3.5-5.94l-1.13-18.39 c0,0-0.99-6.17-5.06-5.41c-4.45,0.83-3.65,6.64-3.65,6.64l2.22,17.1c0,0,0.53,4.66,2.96,7.72c2.47,3.11,10.51,11.26,12.94,14 c0.15,0.17,1.91-0.6,3.07-1.5C319.78,395.55,320.71,394.3,320.43,393.94z" class="st1836"/><g><path d="M324.21,400.41c-0.09-0.58-0.46-2.03-0.95-2.57c-0.99-0.84-1.9-1.49-2.57-2.55 c-0.19-0.3-0.56-0.87-0.61-0.9c-0.86-0.39-3.97,1.49-3.76,2.96c0.35,2.54,1.37,2.16,2.11,3.68c0.31,0.64,0.71,1.51,0.69,2.17 c-0.03,1.33-0.06,1.74,0.47,1.88c0.38,0.1,0.4-0.49,0.47-0.99c0.06-0.4,0.08-0.65,0.1-0.98c0.01-0.14-0.38-1.88-0.29-1.85 c0.17,0.05,0.46,1.67,0.46,1.77c-0.02,0.31-0.08,0.64-0.09,1.08c-0.02,0.71-0.34,1.41,0.25,1.76c0.71,0.42,0.76-1.38,0.87-2.07 c0.07-0.48,0.06-0.6,0.12-0.85c0.02-0.1-0.31-2.12-0.22-2.07c0.13,0.08,0.4,1.9,0.38,2.02c-0.04,0.31-0.03,0.61-0.12,1.15 c-0.14,0.9-0.32,2.09,0.2,2.34c0.66,0.31,0.83-1.01,0.96-1.91c0.05-0.36,0.2-0.84,0.23-1.23c0.02-0.21-0.19-2.72-0.16-2.71 c0.19,0.07,0.4,2.58,0.38,2.72c-0.03,0.27-0.15,0.59-0.23,1.13c-0.17,1.11-0.19,1.31,0.06,1.46c0.25,0.16,0.68,0.07,1.03-1.14 c0.11-0.39,0.25-0.97,0.34-1.43C324.4,402.77,324.29,400.92,324.21,400.41z" class="st159"/></g></g></g><g id="woman1_00000127004095314247962120000005121159101342649254_"><ellipse cx="240.58" cy="536.17" class="st17" rx="21.02" ry="8.13"/><g><path d="M229.78,529.66c2.96-0.98,5.7,0.46,9.64,0.5c1.18,0.01,4.23-1.3,5.61,1.18 c-0.11,1.3-1.04,2.29-2.07,2.69c-1.91,1.21-4.22,1.67-6.19,0.83c-2.38-0.9-5.09-1.6-6.25-1.57c-0.65,0.02-2.01,3.27-2.01,3.27 c-0.69,0.23-0.99,0.04-1.04-0.13c-0.52-1.95-1.14-3.24-1.99-4.11c-0.6-0.73-0.73-2.35,0.03-2.93 C226.73,529.21,227.38,530.45,229.78,529.66z" class="st1854"/><path d="M241.69,531.01c-0.09,0.23-1.72,1.63-1.96,1.66c-2.44,0.26-8.9-1.13-12.02-3.39 c-2.09-1.52-0.68-4.19-0.68-4.19c0.35-0.8,0.74-1.94,0.76-3.32c0.01-0.62,6-1.23,6.21,1.54c0.2,2.59,1.72,4.04,1.91,4.19 c1,0.77,3.19,1.17,3.66,1.25c0.62,0.15,1.7,0.44,2,0.86C241.71,529.79,241.77,530.79,241.69,531.01z" class="st1261"/><path d="M226.92,524.96c0.16-0.2,0.87,1.14,1.01,1.34c0.79,1.11,2.24,2.37,3.37,2.99c4.94,2.73,7.7,2.91,9.12,2 c0.21-0.13,0.96-1.07,0.19-1.97c-0.33-0.39-0.62-0.44-1.04-0.58c1.08,0.18,2.2,0.07,3.97,0.66c1.12,0.37,1.61,0.67,1.49,1.94 c-0.07,0.8-1.74,2.03-3.05,2.66c-0.93,0.46-2.03,0.63-2.78,0.57c-2.82-0.22-3.51-0.68-4.85-1.01c-1.43-0.35-2.21-0.68-3.33-0.84 c-0.59-0.08-0.97-0.02-2.17,0.18c-1.19,0.21-3.07-0.13-3.6-1.19c-0.96-1.9,0.81-4.79,0.81-4.79L226.92,524.96z" class="st1849"/></g><g><path d="M234,524.93c0.33-8.18,0.88-14.18,1.16-20.42c0.16-3.63,1.01-13.54,1.82-17.01 c1.15-4.91,0.89-25.79-0.48-26.71c-5.78-3.91-9.58,12.01-9.58,12.01c2.09,11.46-1.28,17.47,0.95,37.36 c0.59,5.28-0.06,11.71-0.11,12c-0.26,1.52,0.11,3.04,3.13,3.56C232.02,525.91,233.97,525.7,234,524.93z" class="st1261"/></g><g><path d="M235.44,529.85c3.36,1.41,4.26,1.7,8.06,3.19c1.13,0.44,5.71,0.75,4.67,3.06 c-0.79,1.77-2.27,2.87-3.28,3.03c-2.15,0.34-3.47-0.18-5.56-1.37c-0.44-0.25-2.34-2.42-5.29-3.12 c-1.16-0.28-3.06,2.04-3.58,2.86c-0.06,0.1-0.18,0.15-0.29,0.11l-0.53-0.16c-0.2-0.06-0.33-0.25-0.32-0.47 c0.05-1.37-0.26-2.88-0.6-3.6c-0.34-0.71-0.6-1.44-0.63-2.46c-0.04-1.36,0.9-2.52,2.17-2.21 C231.45,528.99,233.19,528.91,235.44,529.85z" class="st1854"/><path d="M245.18,534.52c-0.09,0.26-0.87,0.8-1.14,0.81c-1.15,0.04-7.2-1.16-8.4-1.76 c-1.29-0.65-3.71-2.32-4.21-3c-0.86-1.19-0.59-3.09-0.74-3.68c-0.11-0.42,1.88-2.57,1.88-2.57c1.21,0.29,3.44,1.23,5.76,1.99 c0,0,0.19,2.59,3.96,5.62c0.32,0.25,0.95,0.5,1.68,0.77c0.14,0.18,1.03,0.59,1.16,0.72 C245.26,533.54,245.24,534.35,245.18,534.52z" class="st1853"/><path d="M230.93,525.83c0.88-0.77,0.62-0.32,0.84,0.65c0.14,0.59,0.26,1.77,1.12,2.96 c0.49,0.68,1.43,1.74,2.67,2.49c1.97,1.19,4.34,2.53,7.88,2.78c0.27,0.02,1.19-0.61,1.04-1.3c-0.09-0.4-0.38-0.53-0.52-0.71 c1.48,0.54,3.58,1.09,4.27,2.05c0.35,0.48,0.02,1.3-0.27,1.64c0,0-2.3,2.69-4.97,2.16c-2.44-0.49-3.81-1.52-7.28-3.98 c-1.71-1.21-4.01-0.5-5.37-1.14c-0.91-0.43-3.08-1.76-1.96-4.4C228.91,527.79,230.32,526.36,230.93,525.83z" class="st1850"/></g><path d="M231.37,458.22c-0.18-1.67-5.22-4.3-5.82-5.25c-0.27-0.43-0.97-1.33-1.45-2.19 c-0.2-0.36-4.11,1.97-4,2.19c0.6,1.2,1.12,1.52,1.26,2.98c0.18,1.97,2.54,6.38,3.03,7.1c1.29,1.9,5.61,2.01,6.63,0.69 c0.28-0.36-2.59-3.63-1.85-5.74C229.5,457,231.94,463.47,231.37,458.22z" class="st1261"/><path d="M212.07,434.29c-0.47-3.85,0.02-5.54,0.5-7.29c1.9-6.87,7.58-21.75,8.51-22.94 c1.46-1.86,3.4-1.69,4.45-0.62c1.05,1.07,1.55,2.62,1.08,4.37c-0.48,1.79-4.07,9.63-6.53,18.81c-0.37,1.39-1.3,5.15-1.31,7.48 L212.07,434.29z" class="st1849"/><path d="M218.77,432.21c1.35,5,2.24,7.08,2.96,9.81c0.26,1,3.51,10.79,3.51,10.79s-0.42,0.83-1.88,1.21 c-2.29,0.6-3.39-0.39-3.39-0.39s-1.05-2.15-1.74-3.73c-0.74-1.7-2.53-4.96-3.58-7.51c-0.81-1.97-2.71-6.56-2.76-9.92 L218.77,432.21z" class="st1849"/><g><path d="M232.29,524.64c0,0-0.39,2.72,3.54,4.08c2.34,0.81,2.62-2.16,2.62-2.16 c4.15-12.32,6.27-17.59,8.33-22.66c3.56-8.74,5.67-13.14,6.27-15.87c0.35-1.61-0.22-17.39-0.11-17.8 c0.9-3.25-10.25-1.88-10.25-1.88s1.25,16.69,0.84,18.15c-1.54,5.45-5.27,18.82-6.2,23.77 C235.72,518.85,232.29,524.64,232.29,524.64z" class="st1853"/></g><path d="M272.49,421.9c-1.26,0.94-2.14,3.24-2.96,4.49c-0.3,0.47-2.01,1.11-2.01,1.2c0,0.45,1.97,4.23,2.21,4.11 c1.32-0.63,2.07-1.25,3.46-1.38c1.93-0.18,3.03-1.12,3.85-1.74c0.75-0.57,1.2-3.89,0.97-6.2c-0.06-0.57-0.6-2.1-1.37-2.04 c-0.5,0.04-0.77,3.1-1.26,3.12c-0.18,0.01-2.58,1.8-1.43-1.52c0.63-1.81,0.17-1.89-0.28-1.73 C273.14,420.41,273.05,421.48,272.49,421.9z" class="st1853"/><g><path d="M255.77,478.17c0,0-4.8,3.05-18.67,1.82c-5.84-0.52-11.85-2.44-12.02-3.99 c-1.19-10.96-0.45-14.2-1.19-17.85c-1.43-7.1,0.83-12.58,2.4-17.29c0.15-0.45,0.27-0.9,0.37-1.34c0.12-0.54,0.2-1.09,0.24-1.65 c0.34-4.18-1.27-8.97-3.35-18.28c-1.35-6.06-1.59-5.48-2.48-9.94c-0.22-1.09-0.98-4.54,1.62-6.29c0.97-0.65,4.63-1.66,6.69-1.52 c2.81,0.19,6.19-0.09,8.81,1.12c2.91,1.35,5.31,2.02,8.45,4.45c2.44,1.89,3.69,2.95,4.17,4.38c0.84,2.51,0.16,4.2,3.76,9.92 c1.21,1.92-1.03,4.6-2.15,5.79c-1.64,1.75-2.73,8.2-3.19,10.67c-0.13,0.72-0.2,1.2-0.18,1.32c0.01,0.08,0.04,0.19,0.08,0.32 c0.53,1.7,3.48,7.73,4.34,11.78c0.8,3.77,0.22,8.26,0.16,13.22C253.51,472.54,255.77,478.17,255.77,478.17z" class="st1850"/><path d="M249.11,439.83c-4.79,0.46-8.7,0.64-11.94,0.49c-5-0.23-9.01-1.04-10.38-1.62 c0.12-0.54,0.11-1.13,0.15-1.68c3.34,0.81,9.86,2.36,22.27,1.16C249.09,438.9,249.07,439.69,249.11,439.83z" class="st23"/><g><path d="M229.49,402.89L229,391.81l9.92,4.32l0.78,6.47c0,0-0.53,0.76-1.27,1.26 c-1.69,1.13-3.88,1.32-5.61,0.94C231.78,404.56,229.61,403.46,229.49,402.89z" class="st1856"/><path d="M226.8,384.06c0.1,5.64,2.22,11.54,7.65,13.06c2.55,0.71,7.84,1.54,9.82-4.5 c0.51-1.56,1.2-2.77,1.09-5.84c-0.01-0.17-0.51-2.6-0.53-2.77c-0.07-0.68,0.62-1.31,0.35-2.55c-0.77-3.58-4.45-6.11-8.53-6.04 C231.02,375.52,226.7,378.42,226.8,384.06z" class="st1853"/><path d="M223.29,396.84c1.58-2.37,2.1-4.14,2.1-6.64c0-2.12-1.24-4.65-0.94-7.1 c0.95-6.16,5.95-9.94,10.91-10.03c5.18-0.09,8.64,2.59,9.62,5.55c0.12,0.37,0.44,1.15,0.45,1.64c0.15,0.97,0.51,2.94-0.04,5.89 c-0.1,0.54-0.36,1.08-0.74,1.58c-0.2,0.25,0.14-0.54,0.03-1.58c-0.09-0.87-0.3-1.57-0.51-1.32c-0.9,1.07-1.73,2.14-0.99,6.06 c1.18,6.3,2.51,8.06,2.42,10.67c-0.21,5.86-1.83,6.05-3.33,10.46c-1.29,3.8,3.12,6.1-1.4,9.21 c-5.42,3.72-21.32-0.02-19.43-7.77c0.75-3.08,2.35-3.07,0.29-8.07C220.4,402.17,222.18,398.51,223.29,396.84z" class="st1854"/></g><path d="M244.47,434.69c-0.09-4.45-0.63-13.19-0.84-17.11c-0.18-3.5-0.65-6.03,0.56-7.45 c1.27-1.49,2.43-1.93,3.84-1.4c2.5,0.94,3.12,3.65,3.12,6.65c0,0.46,0.1,9.99,0.42,15.89c3.11-0.61,5.88-0.85,8.06-1.47 c4.62-1.32,8.73-3.2,8.73-3.2s1.37-0.94,2.96,1.69c0.78,1.29-0.02,3.11-0.02,3.11s-5.68,2.69-6.64,3.08 c-5.01,2.03-7.38,3.11-12.08,4.41c-3.32,0.92-5.45,0.97-6.55,0.1C244.88,438.09,244.49,435.61,244.47,434.69z" class="st1849"/></g></g><g id="man1_00000052096005644343418820000011029542531366363316_"><path d="M425.93,323.5c0,7.53-20.2,20.6-23.62,11.1c-4.07-11.3-23.99-6.54-25.81-12.77 c-1.38-4.76,15.37-13.2,25.57-6.85C411.88,321.07,425.92,317,425.93,323.5z" class="st17"/><g><g><path d="M407.02,327.73c-0.7,1.45-0.63,0.82-1.77,3.29c-0.65,1.39-1.06,3.65,2.01,4.01 c1.97,0.23,3.97-0.69,5.23-1.75c0.82-0.69,2.15-2.26,2.73-4.52c0.12-0.47,1.36-1.67,1.85-2.66c0.47-0.97,1.8-3.77-1.69-5.28 c-3.51-1.52-5.79,2.53-6.34,3.43C408.5,325.11,408.03,325.62,407.02,327.73z" class="st1857"/><path d="M417.38,321.72c-0.55-1.46,0.06-2.27-1.29-2.38c-3.83-0.3-6.17,1.72-6.56,2.67 c-0.38,0.93-0.57,0.22-1.8,3.65c-0.42,1.18-0.91,2.27-1.45,2.98c-0.4,0.53-0.82,1.24-0.95,1.66c-0.42,1.13-1.07,2.8,1.04,3.53 c2.16,0.75,4.46-0.48,5.68-1.2c1.06-0.63,2.52-2.33,3.43-4.6c0.18-0.45,1.66-2.67,1.93-4.02 C417.48,323.69,417.77,322.66,417.38,321.72z" class="st1854"/></g><g><path d="M390.51,319.67c-2.03,0.79-2.88,1.27-5.27,1.54c-1.17,0.13-5.12,0.54-6.36-0.88 c-0.22-0.26-0.19-1.44-0.13-1.72c0.25-1.07,2.17-1.28,2.94-1.6c3.23-1.36,3.08-0.63,6.38-1.41c0.61-0.14,3.9-1,5.33-1.15 c0.95-0.1,4.54,0.6,4.61,0.82c0.73,2.27-1.36,2.8-2.62,3.15C394.19,318.73,392.83,318.77,390.51,319.67z" class="st1857"/><path d="M397.79,311.26c-0.05-0.37-0.15-0.53-0.26-0.63c-0.75-0.61-2.16,1.02-4.5,1.9 c-1.77,0.67-2.58-1.45-3.95-0.36c-0.19,0.15-1.98,1.88-4.62,2.93c-0.22,0.09-2.62,0.81-2.7,0.84c-1.8,0.65-3.69,2.03-2.81,3.32 c1.15,1.7,5.19,1.05,6.36,0.88c1.45-0.21,2.37-0.35,5.27-1.54c2.3-0.94,3.68-0.94,4.88-1.26c0.95-0.26,2.57-0.68,2.63-1.64 c0,0,0.3-0.95,0.24-1.77C398.22,312.46,397.86,311.71,397.79,311.26z" class="st1854"/></g><path d="M385.96,280.29c-0.56-4.64-0.41-14.03,0.25-21.6c0.72-8.26,1.57-13.14,2.89-20.46 c0.48-2.68,5.56-0.72,7.75,0.28c1.29,0.59,4.19,2.82,4.85,4.09c2.6,5.02,2.56,8.29,2.18,10.71c-0.65,4.21-2.59,7.85-4.25,12.27 c-1.76,4.68-3.04,10.17-3.43,14.93c0.07,1.93,1.56,30.07,0.97,31.15c-0.29,0.53-1.9,2.16-3.74,2.26 c-4.36,0.23-4.3-1.32-4.22-2.03C389.57,308.58,386.29,284.74,385.96,280.29L385.96,280.29z" class="st1253"/><path d="M398.31,241.79c-0.19-6.19,9.51-2.83,11.41-2.55c1.14,0.17,5.62,1.12,7.86,5.29 c1.73,3.22,0.42,22.76-1.23,40.16c-0.05,9.6,0.4,35.59,0.4,35.59s0.01,1.65-1.51,2.62c-2.61,1.66-4.51,1.22-5.32,0.97 c-0.97-0.3-0.86-0.7-0.86-1.76c-0.05-15.41-3.22-29.76-3.58-38.76c-0.67-5.95-0.63-29.45-6.73-32.12 C397.5,250.69,398.35,243.07,398.31,241.79z" class="st1257"/></g><g><g><path d="M372.64,215.55c-0.06,2.46,1.17,5.23,3.51,5.59c2.59,0.39,5.64-1.47,7.42-4.52 c2.19-3.61,4.23-7.74,6.72-14.15c1.18-3.03,2.31-7.77,2.36-10.9c0.04-2.6,0.16-5.08-1.43-5.78c-0.91-0.4-3.42,0-4.88,2.16 c-0.95,1.4-1.72,4.77-2.95,8.67c-0.26,0.83-0.58,1.87-0.93,2.99c-1.41,4.62-3.27,10.8-3.63,10.99 c-0.01-0.03-0.01-0.07-0.02-0.12c-0.1-1.19,0.59-6.17,0.46-7.26c-0.14-1.17-6.16-1.19-6.24-0.28 C372.64,207.55,372.77,210.06,372.64,215.55z" class="st1836"/><path d="M378.83,210.47l0.14,6.44c0,0,4.87-17.83,3.51-17.31c-1.41,4.62-3.27,10.8-3.63,10.99 C378.83,210.56,378.83,210.52,378.83,210.47z" class="st1836"/></g><g><path d="M386.07,204.1c-0.66-5.83-0.27-13.64,1.82-16.58c0.77-1.08,1.46-1.5,2.49-1.92 c0.89-0.36,11.74,1.74,15.41,3.65c5.37,2.8,11.94,10.61,13.29,13.29c0.84,1.68,1.57,8.09,1.43,16.08 c-0.16,9.14-2.53,24.21-3.21,25c-1.34,1.56-6.13,1.86-6.13,1.86c-13.37,0.74-20.76-4.11-22.33-7.74 c-0.19-0.43-0.59-6.07-1.23-14.44C387.46,221.42,386.4,207.07,386.07,204.1z" class="st702"/><path d="M396.98,242.31l1.3,0.3c0,0-1.03-15.39-0.32-38.65c0.1-3.37,2.68-12.19,2.68-12.19l-2.38-1.89 c0,0-1.45,10.17-1.65,13.7C395.31,226.27,396.98,242.31,396.98,242.31z" class="st1836"/><g><path d="M417.74,242.19c0,0-18.26,4.11-29.24-5.93c-0.08,1.89,0.41,3.07,0.41,3.07s8.6,9.77,28.77,5.48 C418.02,243.42,417.74,242.19,417.74,242.19z" class="st1259"/><path d="M399.3,241.65l-2.96-0.86c-0.27-0.08-0.53,0.11-0.55,0.39l-0.11,2.39c-0.01,0.2,0.12,0.38,0.32,0.43 l3.01,0.77c0.27,0.07,0.53-0.13,0.53-0.4l0.06-2.31C399.61,241.88,399.48,241.71,399.3,241.65z" class="st1258"/></g><path d="M403.9,186.76l-0.31,1.95c0,0-5.09,1.92-6.61,5.43c0-2.24,0.43-3.69,0.55-4.55 C401.14,187.44,403.9,186.76,403.9,186.76z" class="st1836"/><g><g><path d="M408.04,190.56c0.02,0.57-0.52,1.16-0.7,1.33c-0.79,0.74-3.5,2.07-6.89,1.22 c-1.89-0.47-2.16-1.91-2.16-1.91l-0.08-3.12l10.56-9.06c0,0-0.75,8.22-0.74,9.59C408.03,189.38,408.02,189.95,408.04,190.56z" class="st1261"/><path d="M392.18,169.7c-0.64,1.25-0.64,2.64-0.53,4.85c0.02,0.38-0.23,4.44-0.09,5.39 c0.72,4.95,2.63,8.11,3.67,8.5c1.38,0.52,2.95,0.89,5,0.02c1.03-0.44,3.93-2.18,5.15-3.03c0.75-0.52,1.38-3.42,1.64-4.25 c0.17-0.54,0.24,0.59,0.95,0.59c0.55,0,0.76-0.33,0.85-0.47c4.76-6.7,4.32-15.99-0.85-18.04 C402.82,161.19,394.3,165.59,392.18,169.7z" class="st1853"/><path d="M393.81,166.04c-0.82,0.75-1.33,1.62-2.54,0.35c-0.37-0.39-1.53,2.96,1.42,3.66 c0.84,0.2,1.97,0.74,4.7,0.81c0.4,0.01,4.06-0.26,4.98-0.38c0.21-0.03,0.38,0,0.52,0.08c0.14,0.07,0.25,0.19,0.34,0.33 c0.43,0.7,0.32,2.03,0.41,2.17c0.52,0.81,1.71,0.94,1.7,2.04c0,0.18-0.17,3.42,2.58,2.93c-0.54-0.35-0.91-1.05-0.42-2.18 c0.38-0.89,0.85-1.5,1.53-1.61c1.25-0.22,1.35,1.78,0.85,3.68c-0.57,2.19-1.38,3.61-0.9,3.48c2.24-0.62,3.89-2.57,2.75-2.73 c-1.7-0.24,2.98-6.14,0.3-12.23C408.8,159.1,398.72,161.58,393.81,166.04z" class="st1854"/></g></g><path d="M408.07,187.69c1.07,0.11,1.45,4.08,1.45,4.08s-2.7,2.35-10.18,3.67c0.98-2.11,1.11-3.31,1.32-4.35 C405.07,190.15,407.76,187.66,408.07,187.69z" class="st1836"/></g><g><path d="M382.47,245.67c1.51-1.73,14.83-13.37,16.77-16.37c0.28-0.61,10.91-19.13,11.89-23.61 c1.75-7.94,11.18-7.64,8.46,2.79c-1.05,4.03-9.47,21.35-14.15,25.86c-1.48,2.15-17.44,14.99-18.84,15.94 c-0.45,0.3-3.25-0.92-3.72-1.57C381.94,247.44,382.19,245.99,382.47,245.67z" class="st1836"/><path d="M375.99,251.54c0.55-0.34,1.49-1.32,1.72-2.05c-0.17,0.03-1.45,0.76-1.6,0.81 c-1.38,0.47-1.63,0.28-2.27-0.01c-0.68-0.31,0.31-0.62,1.42-1.5c0.47-0.37,1.54-1.2,2.09-1.37c0.34-0.1,0.88-0.2,1.51-0.23 c1.51-0.28,2.42,0.03,3.48-0.81c0.28-0.22,0.51-0.24,0.51-0.24c1.26-0.45,4.06,2.91,3.41,3.76c-0.76,0.99-0.79,1.57-1.23,2.18 c-0.56,0.79-1.59,1.74-3.58,3.37c-0.62,0.51-2.73,0.88-3.84,0.83c-1.11-0.05-3.97-0.92-4.48-1.14 C371.72,254.56,374.66,252.36,375.99,251.54z" class="st1853"/><path d="M372.14,254.78c0.96-0.99,1.65-3.85,2.95-4.48c0.58-0.28,1.96-0.82,2.93-0.79 c0.29,0.01,0.43,1.21-1.43,1.76c-0.78,0.23-1.58,1.01-1.77,1.3c-0.04,0.06-0.08,0.1-0.14,0.14L372.14,254.78z" class="st1261"/></g></g><g><g><g class="st73"><path d="M370.05,204.36c0.59-0.8,0.96-1.7,1.03-2.49l1.04-8.21l2.09,1.64l-1.04,8.21 c-0.07,0.79-0.44,1.69-1.03,2.49c-0.72,0.98-0.81,1.8-0.51,2.04l-2.09-1.64C369.24,206.17,369.32,205.35,370.05,204.36z" class="st1836"/><path d="M376.99,191.44c0.09-0.04,0.16-0.04,0.21,0l2.09,1.64l-5.08,2.22l-2.09-1.64 c-0.05-0.04-0.07-0.06-0.07-0.06C373.7,192.88,375.34,192.16,376.99,191.44z" class="st702"/><path d="M372.13,206c0.59-0.8,0.96-1.7,1.03-2.49l1.04-8.21l5.08-2.22c0.05,0.04,0.06,0.12,0.04,0.22 c0-0.01,0-0.02,0.01-0.02c-0.02,0.13-0.04,0.29-0.06,0.42c-0.02,0.13-0.04,0.3-0.06,0.42c-0.02,0.13-0.04,0.3-0.06,0.42 c-0.02,0.13-0.04,0.3-0.06,0.42c-0.13,0.85-0.25,1.71-0.38,2.56c-0.21,1.44-0.42,2.87-0.63,4.31c-0.09,0.9-0.19,1.8-0.28,2.71 c-0.03,0.24-0.11,0.41-0.16,0.51c-0.03,0.07-0.14,0.26-0.33,0.51c-0.13,0.16-0.31,0.34-0.47,0.48 c-0.13,0.11-0.2,0.16-0.33,0.25c-0.06,0.04-0.11,0.07-0.24,0.14c0.01,0,0.01-0.01,0.02-0.01c-0.01,0.01-0.02,0.01-0.03,0.02 c-1.36,0.55-2.72,1.1-4.08,1.65c-0.08,0.03-0.17,0.06-0.31,0.05c0,0-0.07-0.01-0.12-0.03c-0.05-0.02-0.06-0.03-0.12-0.07 C371.33,207.8,371.41,206.98,372.13,206z" class="st1858"/></g><g class="st73"><path d="M374.46,193.09l-0.3,2.17c0.03,0.06,0.08,0.11,0.13,0.16l-2.08-1.63c-0.05-0.04-0.1-0.09-0.13-0.16 l0.18-1.29L374.46,193.09z" class="st1859"/><path d="M380.66,190.06l-0.31,1.84c-0.11,0.84-0.48,1.38-1.25,1.74l-3.71,1.71c-0.04,0.02-0.07,0.03-0.11,0.05 c-0.53,0.21-0.94,0.16-1.11-0.15l0.29-2.07L380.66,190.06z" class="st1860"/></g><path d="M374.2,193.27l-0.54,3.86c-0.03,0.21-0.26,0.33-0.45,0.23l-1.19-0.64l0.28-3.62L374.2,193.27z" class="st1258"/><g class="st73"><linearGradient id="SVGID_00000159449627741034155260000017462113587724309928_" x1="420.668" x2="420.668" y1=".967" y2="-3.066" gradientTransform="matrix(-0.9904 -0.1382 -0.1382 0.9904 788.6543 254.4097)" gradientUnits="userSpaceOnUse"><stop offset="0" style="stop-color:#c0cdd9"/><stop offset=".15" style="stop-color:#cfd9e5"/><stop offset=".342" style="stop-color:#dce4ef"/><stop offset=".566" style="stop-color:#e4ebf6"/><stop offset=".897" style="stop-color:#e6edf7"/></linearGradient><path style="fill:url(#SVGID_00000159449627741034155260000017462113587724309928_)" d="M371.34,196.15l0.82-2.95l0.9,0.7 l-0.82,2.95c-0.04,0.21-0.02,0.36,0.08,0.43l-0.9-0.7C371.33,196.51,371.3,196.36,371.34,196.15z"/><polygon points="373.04 192.84 373.94 193.55 373.06 193.9 372.16 193.2" class="st702"/><path d="M372.24,196.86l0.82-2.95l0.88-0.36l-0.47,3.42c-0.2,0.13-0.38,0.22-0.54,0.28 C372.4,197.47,372.14,197.32,372.24,196.86z" class="st1258"/></g></g><g><path d="M385.47,187.34c0,0-5.71,2.28-5.71,2.28l-4.23-10.62l5.7-2.27c0,0,0.02-0.01,0.02-0.01 c0.78-0.3,1.77-0.1,2.77,0.7c2.02,1.6,3.37,4.96,3,7.51c-0.18,1.26-0.74,2.08-1.51,2.4 C385.51,187.32,385.47,187.34,385.47,187.34z" class="st1249"/><path d="M383.3,189.9c0,0-7.28,2.91-7.28,2.91l-5.39-13.55l7.26-2.9c0.01,0,0.02-0.01,0.02-0.01 c1-0.39,2.25-0.12,3.53,0.89c2.58,2.03,4.29,6.32,3.82,9.57c-0.23,1.6-0.95,2.65-1.93,3.07 C383.34,189.88,383.3,189.9,383.3,189.9z" class="st1846"/><path d="M375.9,190.55c1.57,1.23,3.05,1.48,4.12,0.66c0.69-0.53,1.23-1.58,1.41-2.86 c0.47-3.25-1.24-7.54-3.82-9.57c-1.09-0.86-2.18-1.21-3.1-1.06l-0.72,0.29c-0.73,0.51-1.51,1.6-1.71,2.98 C371.61,184.23,373.32,188.52,375.9,190.55z" class="st1249"/><path d="M379.09,191.58c0,0-7.28,2.91-7.28,2.91l-5.39-13.55l7.26-2.9c0.01,0,0.02-0.01,0.02-0.01 c1-0.39,2.25-0.12,3.53,0.89c2.58,2.03,4.29,6.32,3.82,9.58c-0.23,1.6-0.95,2.65-1.93,3.07 C379.14,191.56,379.09,191.58,379.09,191.58z" class="st1846"/><linearGradient id="SVGID_00000181765782490913128390000009870248656640323758_" x1="261.28" x2="281.783" y1="21.029" y2="-14.483" gradientTransform="matrix(-0.9895 -0.1448 -0.1448 0.9895 627.0738 229.1942)" gradientUnits="userSpaceOnUse"><stop offset=".203" style="stop-color:#7f87a8"/><stop offset=".329" style="stop-color:#abaec3"/><stop offset=".446" style="stop-color:#cecfd9"/><stop offset=".539" style="stop-color:#e3e3e6"/><stop offset=".598" style="stop-color:#ebebeb"/><stop offset=".722" style="stop-color:#e9e9ea"/><stop offset=".791" style="stop-color:#e2e1e5"/><stop offset=".847" style="stop-color:#d5d5dd"/><stop offset=".895" style="stop-color:#c4c5d2"/><stop offset=".939" style="stop-color:#adafc4"/><stop offset=".979" style="stop-color:#9197b3"/><stop offset="1" style="stop-color:#7f87a8"/></linearGradient><path style="fill:url(#SVGID_00000181765782490913128390000009870248656640323758_)" d="M351.13,217.88 c2.24-0.89,10.08-12.19,17.7-20.21c1.82-1.91,2.33-2.66,3.85-3.53c0.18-0.11,3.66-2.35,0.38-9.14 c-2.57-5.29-5.66-4.41-5.87-4.38c0,0-2.46,0.81-5.63,0.77c-11.96-0.18-24.67-1.98-26.72-1.16 C334.3,183.86,351.67,214.24,351.13,217.88z"/><path d="M333.94,180.59c0,0,3.02-1.55,3.16-1.61c1.34-0.65,6.08-0.81,10.06,2.33 c7.28,5.76,12.1,17.87,10.76,27.06c-0.6,4.13-2.35,6.96-4.75,8.31c0,0-0.05,0.03-0.05,0.03c-0.01,0.01-2.17,1.29-2.17,1.29 L333.94,180.59z" class="st1248"/><ellipse cx="342.6" cy="199.2" class="st1846" rx="11.89" ry="20.59" transform="matrix(0.9293 -0.3694 0.3694 0.9293 -49.3522 140.6393)"/><linearGradient id="SVGID_00000144329737044720399520000011203024046601793968_" x1="528.243" x2="542.044" y1="143.185" y2="164.435" gradientTransform="matrix(-0.9996 -0.0291 -0.0291 0.9996 881.5969 61.2755)" gradientUnits="userSpaceOnUse"><stop offset="0" style="stop-color:#7f87a8"/><stop offset=".063" style="stop-color:#8c93b1"/><stop offset=".264" style="stop-color:#afb6cb"/><stop offset=".462" style="stop-color:#ccd2e1"/><stop offset=".654" style="stop-color:#e0e7f1"/><stop offset=".837" style="stop-color:#ecf5fa"/><stop offset="1" style="stop-color:#f1f9fd"/></linearGradient><path style="fill:url(#SVGID_00000144329737044720399520000011203024046601793968_)" d="M333.4,202.95 c1.88,4.72,4.67,8.71,7.86,11.23c1.71,1.35,3.43,2.18,4.99,2.41c0.84,0.12,1.62,0.07,2.33-0.15c0.67-0.21,1.27-0.57,1.82-1.08 c1.31-1.22,2.2-3.24,2.57-5.84c0.59-4.03-0.12-8.84-1.99-13.56c-1.88-4.72-4.67-8.71-7.86-11.23 c-1.71-1.35-3.43-2.18-4.99-2.41c-0.61-0.09-1.19-0.09-1.73,0.01c-0.9,0.15-1.71,0.56-2.41,1.21c-1.31,1.22-2.2,3.24-2.57,5.84 C330.82,193.41,331.53,198.23,333.4,202.95z"/><path d="M333.4,202.95c1.88,4.72,4.67,8.71,7.86,11.23c1.71,1.35,3.43,2.18,4.99,2.41 c0.84,0.12,1.62,0.07,2.33-0.15c0.16-0.12,0.33-0.22,0.49-0.27c-0.47,0.06-0.97,0.05-1.49-0.03c-1.56-0.23-3.28-1.06-4.99-2.41 c-3.19-2.52-5.99-6.51-7.86-11.23c-1.88-4.72-2.58-9.54-1.99-13.56c0.38-2.6,1.27-4.62,2.57-5.84c0.34-0.32,0.7-0.57,1.09-0.77 c-0.9,0.15-1.71,0.56-2.41,1.21c-1.31,1.22-2.2,3.24-2.57,5.84C330.82,193.41,331.53,198.23,333.4,202.95z" class="st1249"/><g><defs><path id="SVGID_00000022559413885471115300000005440122886031707313_" d="M346.26,216.59c1.62,0.24,3.02-0.17,4.14-1.23 c1.31-1.22,2.2-3.24,2.58-5.84c0.59-4.03-0.12-8.84-2-13.56c-1.88-4.72-4.67-8.71-7.86-11.23c-1.71-1.35-3.43-2.18-4.99-2.41 c-1.62-0.24-3.02,0.17-4.14,1.23c-1.31,1.22-2.2,3.24-2.58,5.84c-0.59,4.03,0.12,8.84,2,13.56 c1.88,4.72,4.67,8.71,7.86,11.23C342.97,215.53,344.7,216.36,346.26,216.59z"/></defs><clipPath id="SVGID_00000016764223963073851020000002421984741823968951_"><use xlink:href="#SVGID_00000022559413885471115300000005440122886031707313_" style="overflow:visible"/></clipPath><linearGradient id="SVGID_00000102508384219784039440000006353266210947334567_" x1="278.516" x2="285.757" y1="15.265" y2="2.722" gradientTransform="matrix(-0.9895 -0.1448 -0.1448 0.9895 627.0738 229.1942)" gradientUnits="userSpaceOnUse"><stop offset=".111" style="stop-color:#7f87a8"/><stop offset=".192" style="stop-color:#9a9fb8"/><stop offset=".314" style="stop-color:#bdbfce"/><stop offset=".426" style="stop-color:#d6d6de"/><stop offset=".524" style="stop-color:#e6e5e8"/><stop offset=".598" style="stop-color:#ebebeb"/><stop offset=".743" style="stop-color:#e9e9ea"/><stop offset=".81" style="stop-color:#e3e2e5"/><stop offset=".861" style="stop-color:#d7d7de"/><stop offset=".904" style="stop-color:#c7c8d4"/><stop offset=".942" style="stop-color:#b1b4c6"/><stop offset=".975" style="stop-color:#979cb7"/><stop offset="1" style="stop-color:#7f87a8"/></linearGradient><path style="clip-path:url(#SVGID_00000016764223963073851020000002421984741823968951_);fill:url(#SVGID_00000102508384219784039440000006353266210947334567_)" d="M339.65,205.51l-3.86-9.5l12.75-7.29c1.05-0.66,2.47-0.48,3.94,0.67c2.56,2.03,4.26,6.29,3.78,9.52 c-0.25,1.74-1.08,2.82-2.19,3.14C354.07,202.05,339.65,205.51,339.65,205.51z"/><path style="clip-path:url(#SVGID_00000016764223963073851020000002421984741823968951_);fill:#f8fafd" d="M334.6,198.08 c-0.34,2.29,0.87,5.32,2.68,6.75c1.82,1.44,3.56,0.74,3.9-1.55c0.34-2.29-0.87-5.32-2.69-6.75 C336.69,195.09,334.94,195.79,334.6,198.08z"/><path style="clip-path:url(#SVGID_00000016764223963073851020000002421984741823968951_);fill:#d42351" d="M339.64,204.64 c0.49-0.3,0.68-0.96,0.76-1.47c0.3-2.04-0.77-4.74-2.39-6.02c-0.51-0.4-0.91-0.53-1.16-0.56c-0.25-0.04-0.5,0.01-0.71,0.13 c-0.49,0.3-0.68,0.96-0.76,1.47c-0.3,2.04,0.77,4.74,2.39,6.02c0.51,0.4,0.91,0.53,1.16,0.56 C339.19,204.81,339.44,204.77,339.64,204.64z"/></g></g></g><path d="M375.7,196.66c0.98,1.39,1.26,2.25-0.17,3.43c-0.43,0.18-1.45,1.19-1.75,1.28 c-1.56,0.47-2.61-0.18-2.93-0.53c-0.79-0.85,0.02-5.56,0.82-5.89C373.54,196.78,374.92,195.56,375.7,196.66z" class="st1867"/><path d="M379.65,197.04c0,0-2.4-1.63-2.68-1.37c-0.68,0.64-0.1,1.71,0.44,2.3s0.32,0.7,0,1.52 c-0.65,1.67-0.46,3.04,0.58,3.21c0.06,0.01-0.15,0.56-0.08,0.73c0.12,0.28,0.81,0.08,0.88,0.02c0.09-0.08,0.1-1.29,0.18-1.38 c0.66-0.71,1.58-1.92,1.54-2.67C380.47,198.79,379.65,197.04,379.65,197.04z" class="st1867"/></g><path d="M608.7,246.79l2.55-0.71l-2.71-7.75l-1.97,0.55L608.7,246.79z M630.06,306.84l-2.55,0.71l2.71,7.75 l1.97-0.55L630.06,306.84z M613.67,245.93l2.8,0.4l-1.43-7.95l-2.17-0.31L613.67,245.93z M625.09,307.69l-2.8-0.4l1.43,7.95 l2.17,0.31L625.09,307.69z M619.02,247.19l2.86,1.48l-0.04-7.61l-2.21-1.15L619.02,247.19z M619.74,306.44l-2.86-1.49l0.05,7.62 l2.21,1.14L619.74,306.44z M624.4,250.46l2.72,2.47l1.34-6.75l-2.11-1.91L624.4,250.46z M614.36,303.17l-2.72-2.46l-1.34,6.75 l2.11,1.91L614.36,303.17z M629.44,255.53l2.4,3.28l2.63-5.43l-1.86-2.55L629.44,255.53z M609.32,298.11l-2.4-3.28l-2.63,5.43 l1.86,2.54L609.32,298.11z M633.8,262.05l1.91,3.87l3.75-3.74l-1.48-3.01L633.8,262.05z M604.97,291.59l-1.92-3.87l-3.75,3.74 l1.48,3L604.97,291.59z M637.17,269.57l1.3,4.2l4.6-1.8l-1.01-3.26L637.17,269.57z M601.6,284.07l-1.3-4.21l-4.6,1.8l1.01,3.25 L601.6,284.07z M639.32,277.59l0.59,4.24l5.15,0.27l-0.46-3.29L639.32,277.59z M599.44,276.05l-0.6-4.24l-5.15-0.27l0.46,3.28 L599.44,276.05z M640.12,285.55l-0.15,3.99l5.35,2.32l0.12-3.09L640.12,285.55z M598.64,268.08l0.15-3.99l-5.34-2.31l-0.11,3.09 L598.64,268.08z M639.51,292.93l-0.88,3.47l5.17,4.21l0.68-2.69L639.51,292.93z M599.26,260.71l0.88-3.48l-5.18-4.2l-0.68,2.69 L599.26,260.71z M637.53,299.2l-1.56,2.72l4.65,5.81l1.2-2.11L637.53,299.2z M601.24,254.44l1.56-2.72l-4.65-5.81l-1.21,2.1 L601.24,254.44z M634.3,303.94l-2.13,1.78l3.81,7.02l1.65-1.37L634.3,303.94z M604.46,249.69l2.13-1.78l-3.81-7.02l-1.65,1.37 L604.46,249.69z M608.03,253.85c-6.96,5.81-7.52,20.8-1.25,33.49c6.28,12.7,17,18.26,23.97,12.45c6.95-5.81,7.52-20.79,1.24-33.49 C625.71,253.61,614.98,248.04,608.03,253.85 M642.01,257.92c11.28,22.8,10.27,49.71-2.22,60.14 c-12.5,10.44-31.75,0.45-43.04-22.36c-11.26-22.77-10.26-49.69,2.24-60.12C611.48,225.15,630.74,235.15,642.01,257.92" class="st23"/><g><g><polygon points="563.33 314.87 563.25 313.3 664.88 372.08 664.95 373.64" class="st23"/></g><path d="M584.5,364.07l-3.62-2.09l-1.49-13.63l-3.32,10.61l-2.47-1.43l-4.59-15.19l-0.2,12.66l-3.6-2.08l0.42-20.7 l3.57,2.07l5.29,17.27l3.81-12.01l3.6,2.08L584.5,364.07z" class="st23"/><path d="M603.3,374.95l-3.8-2.2l-1.68-5.82l-5.72-3.31l-1.16,4.18l-3.74-2.16l5.22-17.92l3.41,1.97L603.3,374.95z M592.6,360.2l4.31,2.49l-2.49-8.68L592.6,360.2z" class="st23"/><path d="M615.48,365.03l-4.89-2.83l0.87,17.47l-3.55-2.05l-0.87-17.47l-4.82-2.79l-0.2-4.1l13.26,7.67 L615.48,365.03z" class="st23"/><path d="M630.25,373.57l-8.05-4.65l0.25,4.93l7.47,4.32l0.19,3.73l-7.47-4.32l0.24,4.71l8.05,4.65l0.2,4.1 l-11.64-6.73l-1.08-21.56l11.64,6.73L630.25,373.57z" class="st23"/><path d="M645.46,379.88l-1.09,2.75c-1.29-1.64-3-3.23-4.41-4.05c-1.61-0.93-2.5-0.67-2.42,0.78 c0.06,1.26,0.81,2.32,1.96,3.47l2.29,2.28c2.81,2.82,4.78,5.51,4.95,9.06c0.2,4.04-2.12,4.99-6.02,2.74 c-2.49-1.44-4.96-3.83-6.65-6.27l1.27-2.8c1.62,2.31,3.57,4.31,5.19,5.24c1.68,0.97,2.65,0.64,2.58-0.84 c-0.07-1.39-0.96-2.59-2.09-3.69l-2.28-2.25c-3.23-3.24-4.66-5.9-4.8-8.79c-0.2-3.91,2.01-4.97,5.7-2.83 C641.66,375.86,643.79,377.81,645.46,379.88z" class="st23"/><path d="M666.31,400.92c0.32,6.47-3.04,9.04-8.02,6.16c-4.98-2.88-8.81-9.61-9.13-16.08 c-0.32-6.47,3.04-9.04,8.02-6.16C662.16,387.72,665.99,394.45,666.31,400.92z M652.78,393.09c0.2,4.04,2.47,8.16,5.3,9.8 c2.84,1.64,4.81-0.03,4.61-4.06c-0.2-4.04-2.47-8.16-5.3-9.8C654.56,387.39,652.58,389.06,652.78,393.09z" class="st23"/><path d="M569.14,361.75c1.58,0.92,2.69,2.91,2.8,4.99c0.1,2.05-0.87,2.8-2.45,1.89l-2.36-1.36l0.25,4.98l-1.22-0.7 l-0.59-11.85L569.14,361.75z M566.85,361.74l0.21,4.2l2.32,1.34c0.86,0.5,1.39,0,1.33-1.24c-0.06-1.29-0.68-2.46-1.54-2.96 L566.85,361.74z" class="st23"/><path d="M580.43,379.79l-1.27-0.73l-1.1-3.79l-3.93-2.27l-0.76,2.72l-1.27-0.73l2.91-9.83l1.33,0.77L580.43,379.79z M574.41,371.87l3.24,1.88l-1.9-6.56L574.41,371.87z" class="st23"/><path d="M586.9,372.8l-0.43,0.98c-0.76-0.93-1.63-1.76-2.48-2.25c-1.14-0.66-1.87-0.47-1.81,0.73 c0.05,1,0.6,1.73,1.44,2.56l1.51,1.48c1.41,1.39,2.44,2.74,2.53,4.6c0.11,2.12-1.1,2.62-3.06,1.48c-1.27-0.73-2.57-2-3.52-3.29 l0.49-0.93c0.83,1.14,1.96,2.23,2.96,2.81c1.23,0.71,1.96,0.46,1.9-0.73c-0.06-1.12-0.72-1.95-1.55-2.74l-1.51-1.47 c-1.49-1.44-2.33-2.88-2.41-4.49c-0.1-2.03,1.08-2.53,2.96-1.45C584.96,370.72,586.01,371.7,586.9,372.8z" class="st23"/><path d="M594.41,377.14l-0.43,0.98c-0.76-0.93-1.63-1.76-2.48-2.25c-1.14-0.66-1.87-0.47-1.81,0.73 c0.05,1,0.6,1.73,1.44,2.56l1.51,1.48c1.41,1.39,2.44,2.74,2.53,4.6c0.11,2.12-1.1,2.62-3.06,1.48c-1.27-0.73-2.57-2-3.52-3.29 l0.49-0.93c0.83,1.14,1.96,2.23,2.96,2.81c1.23,0.71,1.95,0.46,1.9-0.73c-0.06-1.12-0.72-1.95-1.55-2.74l-1.51-1.47 c-1.49-1.44-2.33-2.88-2.41-4.49c-0.1-2.03,1.08-2.53,2.96-1.45C592.47,375.06,593.51,376.05,594.41,377.14z" class="st23"/><path d="M605.04,394.02l-1.04-0.6l-2.51-10.15l-1.63,7.75l-1.05-0.61l-3.39-13.47l1.23,0.71l2.61,10.42l1.61-7.6 l0.98,0.56l2.48,9.97l1.7-7.93l1.23,0.71L605.04,394.02z" class="st23"/><path d="M617.33,395.38c0.17,3.42-1.74,4.93-4.32,3.44c-2.58-1.5-4.76-5.37-4.93-8.79s1.74-4.93,4.32-3.44 C614.99,388.09,617.16,391.96,617.33,395.38z M609.31,390.74c0.13,2.64,1.75,5.55,3.63,6.64c1.88,1.08,3.29-0.07,3.16-2.71 c-0.13-2.64-1.75-5.55-3.63-6.64C610.6,386.95,609.18,388.1,609.31,390.74z" class="st23"/><path d="M622.33,392.52c1.58,0.92,2.69,2.91,2.8,4.99c0.09,1.81-0.71,2.62-2.05,2.04l-0.14-0.08l2.68,6.32 l0.01,0.15l-1.25-0.73l-2.66-6.42l-1.39-0.81l0.25,5.03l-1.22-0.7l-0.59-11.85L622.33,392.52z M620.04,392.51l0.21,4.2l2.32,1.34 c0.86,0.5,1.39,0,1.33-1.24c-0.06-1.29-0.68-2.46-1.54-2.96L620.04,392.51z" class="st23"/><path d="M629.6,396.72c2.75,1.59,4.71,5.02,4.88,8.58c0.18,3.56-1.54,4.86-4.29,3.27l-2.86-1.66l-0.59-11.85 L629.6,396.72z M628.02,397.12l0.46,9.14l1.6,0.92c2.05,1.19,3.32,0.14,3.18-2.6c-0.14-2.74-1.58-5.36-3.64-6.54L628.02,397.12z" class="st23"/><path d="M643.97,405.81l-0.43,0.98c-0.76-0.93-1.63-1.76-2.48-2.25c-1.14-0.66-1.87-0.47-1.81,0.73 c0.05,1,0.6,1.73,1.44,2.56l1.51,1.48c1.41,1.39,2.44,2.74,2.53,4.6c0.11,2.12-1.1,2.62-3.06,1.48c-1.27-0.73-2.57-2-3.52-3.29 l0.49-0.93c0.83,1.14,1.96,2.23,2.96,2.81c1.23,0.71,1.95,0.46,1.9-0.73c-0.06-1.12-0.72-1.95-1.55-2.74l-1.51-1.47 c-1.49-1.44-2.33-2.88-2.41-4.49c-0.1-2.03,1.08-2.53,2.96-1.45C642.04,403.73,643.08,404.72,643.97,405.81z" class="st23"/><path d="M653.74,422.19l-1.27-0.73l-1.1-3.79l-3.93-2.27l-0.76,2.72l-1.27-0.73l2.91-9.83l1.33,0.77L653.74,422.19z M647.72,414.27l3.24,1.88l-1.9-6.56L647.72,414.27z" class="st23"/><path d="M660.03,415.63l-4.4-2.54l0.2,4.01l4.02,2.32l0.07,1.34l-4.02-2.32l0.26,5.15l-1.22-0.7l-0.59-11.85 l5.61,3.25L660.03,415.63z" class="st23"/><path d="M667.26,419.82l-4.68-2.7l0.2,4.01l4.33,2.51l0.07,1.34l-4.33-2.51l0.19,3.79l4.68,2.7l0.07,1.35 l-5.89-3.41l-0.59-11.85l5.89,3.41L667.26,419.82z" class="st23"/></g></g><g><path d="M983.5,645.29c0,0-51.67,9.02-100.31-19.07l-79.4,45.84c-5.37,3.1-13.74,5.86-17.51,10.11 c-5.33,6-5.01,13.91-4.49,20.84c1.28,17.33,10.66,34.78,16.68,41.42c1.56,1.72,7.9,3.12,7.9,3.12s93.95,22.74,130.77,1.48 l79.4-45.84C967.88,675.12,983.5,645.29,983.5,645.29z" class="st1167"/><g><path d="M808.88,534.6c0,0-18.02,28.44-66.67,0.36v91.68c0,6.2-1.79,12.76,0,20.22 c2.53,10.54,9.54,22.31,15.81,32.56c15.65,25.62,35.45,49.1,44.21,57.31c2.27,2.13,6.65,2.41,6.65,2.41s66.67,6.99,66.67-35.52 v-91.68C826.91,583.85,808.88,534.6,808.88,534.6z" class="st307"/><g><path d="M800.54,548.48c0,0-15.77,23.38-64.42-4.71l-0.56,86.71c0,42.52,66.67,112.51,66.67,112.51 s63.34,6.45,63.34-36.06V617.7C816.93,589.62,800.54,548.48,800.54,548.48z M862.24,703.62c0,18.56-16.46,26.01-30.27,29 c-12.19,2.64-24.57,2.3-29.75,1.99c-5.18-5.67-17.56-19.63-29.75-36.34c-13.81-18.93-30.27-45.39-30.27-63.95v-84.24 c23.4,11.83,39.46,10.74,49.06,7.47c4.68-1.59,8.29-3.83,10.95-5.95c2.66,5.19,6.28,11.6,10.95,18.59 c9.6,14.36,25.66,33.98,49.06,49.18V703.62z" class="st308"/><path d="M802.23,719.77c-5.57-6.34-14.48-16.88-23.15-28.77c-16.03-21.97-25.22-40.18-25.22-49.95v-72.23 c20.99,8.16,35.77,6.47,44.66,3.45c1.26-0.43,2.5-0.92,3.71-1.45c1.21,1.93,2.45,3.85,3.71,5.74 c8.89,13.29,23.67,32.05,44.66,48.12v72.23c0,9.77-9.19,17.37-25.22,20.83C816.71,719.61,807.8,719.85,802.23,719.77z" class="st309"/></g><polygon points="750.53 570.74 753.86 568.82 753.86 572.78" class="st309"/><polygon points="798.9 540.36 808.88 534.6 800.54 548.48" class="st310"/><polygon points="732.23 540.72 742.21 534.96 742.21 546.23 733.91 543.35" class="st310"/><polygon points="861.46 729.85 850.22 736.4 855.84 731.68" class="st310"/><g><path d="M798.9,540.36c0,0-18.02,28.44-66.67,0.36v91.68c0,42.52,66.67,112.51,66.67,112.51s66.67,6.99,66.67-35.52 V617.7C816.93,589.62,798.9,540.36,798.9,540.36z M858.92,705.54c0,18.56-16.46,26.01-30.27,29 c-12.19,2.64-24.57,2.3-29.75,1.99c-5.18-5.67-17.56-19.63-29.75-36.34c-13.81-18.93-30.27-45.39-30.27-63.95v-84.24 c23.4,11.83,39.46,10.74,49.06,7.47c4.68-1.59,8.29-3.83,10.95-5.95c2.66,5.19,6.28,11.6,10.95,18.59 c9.6,14.36,25.66,33.98,49.06,49.18V705.54z" class="st1"/><path d="M798.9,721.69c-5.57-6.34-14.48-16.88-23.15-28.77c-16.03-21.97-25.22-40.18-25.22-49.95v-72.23 c20.99,8.16,35.77,6.47,44.66,3.45c1.26-0.43,2.5-0.92,3.71-1.45c1.21,1.93,2.45,3.85,3.71,5.74 c8.89,13.29,23.67,32.05,44.66,48.12v72.23c0,9.77-9.19,17.37-25.22,20.83C813.38,721.53,804.47,721.78,798.9,721.69z" class="st1"/></g></g><path d="M815.92,647.34l-1.96-1.13v-7.7c0-9.55-6.73-21.21-15-25.98c-8.27-4.78-15-0.89-15,8.66v7.7l-1.96-1.13 c-3.25-1.88-5.92-0.34-5.92,3.42v25.01c0,3.76,2.66,8.37,5.92,10.25l33.92,19.58c3.25,1.88,5.92,0.34,5.92-3.42v-25.01 C821.83,653.83,819.17,649.22,815.92,647.34z M794.16,664.47l2.37-10.32c-1.12-1.54-1.86-3.46-1.86-5.15 c0-2.73,1.92-3.84,4.28-2.47s4.28,4.68,4.28,7.42c0,1.69-0.74,2.76-1.86,3l2.37,13.06L794.16,664.47z M808.96,643.33l-20-11.55 v-7.7c0-6.37,4.49-8.96,10-5.77c5.52,3.18,10,10.95,10,17.32V643.33z" class="st23"/></g></g></svg>