<svg xmlns="http://www.w3.org/2000/svg" width="24" height="24" fill="none" viewBox="0 0 24 24"><path fill="#fff" d="M24 12C24 18.6274 18.6274 24 12 24C5.37258 24 0 18.6274 0 12C0 5.37258 5.37258 0 12 0C18.6274 0 24 5.37258 24 12Z"/><path fill="#1A1D5F" d="M13.3835 4.9976L14.3435 5.25172L14.7105 3.44466L13.9764 3.24701L13.3835 4.9976ZM10.6447 19.0023L9.68466 18.7482L9.3176 20.5552L10.0517 20.7529L10.6447 19.0023ZM15.1341 5.59054L15.9811 6.07054L16.8 4.43289L16.1505 4.0376L15.1341 5.59054ZM8.86584 18.4094L8.01878 17.9294L7.19995 19.567L7.84936 19.9341L8.86584 18.4094ZM16.687 6.63525L17.3929 7.34113L18.607 5.9576L18.0705 5.39289L16.687 6.63525ZM7.31289 17.3929L6.60701 16.687L5.42113 18.0705L5.9576 18.607L7.31289 17.3929ZM17.9294 8.01878L18.4094 8.86583L19.9341 7.84936L19.567 7.19995L17.9294 8.01878ZM6.09878 15.9811L5.61878 15.1341L4.09407 16.1505L4.46113 16.8L6.09878 15.9811ZM18.7482 9.68466L19.0023 10.6447L20.7529 10.0517L20.5552 9.3176L18.7482 9.68466ZM5.25172 14.3152L4.9976 13.3552L3.24701 13.9482L3.44466 14.6823L5.25172 14.3152ZM19.1152 11.52V12.5082L20.9505 12.3952V11.6329L19.1152 11.52ZM4.88466 12.5082V11.52L3.04936 11.6329V12.3952L4.88466 12.5082ZM19.0023 13.3835L18.7482 14.3435L20.5552 14.7105L20.7529 13.9764L19.0023 13.3835ZM4.9976 10.6447L5.25172 9.68466L3.44466 9.3176L3.24701 10.0517L4.9976 10.6447ZM18.4094 15.1341L17.9294 15.9811L19.567 16.8L19.9623 16.1505L18.4094 15.1341ZM5.59054 8.86583L6.07054 8.01878L4.43289 7.19995L4.06583 7.84936L5.59054 8.86583ZM17.3929 16.687L16.687 17.3929L18.0705 18.607L18.607 18.0705L17.3929 16.687ZM6.63525 7.31289L7.34113 6.60701L5.9576 5.39289L5.42113 5.92936L6.63525 7.31289ZM15.9811 17.9294L15.1341 18.4094L16.1505 19.9341L16.8 19.5388L15.9811 17.9294ZM8.01878 6.09878L8.86584 5.61878L7.84936 4.09407L7.19995 4.46113L8.01878 6.09878ZM14.3152 18.7482L13.3552 19.0023L13.9482 20.7529L14.6823 20.5552L14.3152 18.7482ZM9.68466 5.25172L10.6447 4.9976L10.0517 3.24701L9.3176 3.44466L9.68466 5.25172ZM12.5082 19.1152H11.52L11.6329 20.9505H12.3952L12.5082 19.1152ZM11.52 4.88466H12.5082L12.3952 3.04936H11.6329L11.52 4.88466ZM12 6.18348C8.78113 6.18348 6.15525 8.78113 6.15525 12.0282C6.15525 15.247 8.75289 17.8729 12 17.8729C15.2188 17.8729 17.8447 15.2752 17.8447 12.0282C17.8447 8.78113 15.2188 6.18348 12 6.18348ZM22.4752 12C22.4752 17.7882 17.7882 22.4752 12 22.4752C6.21172 22.4752 1.52466 17.7882 1.52466 12C1.52466 6.21172 6.21172 1.52466 12 1.52466C17.7882 1.52466 22.4752 6.21172 22.4752 12Z"/></svg>