<?xml version="1.0" encoding="utf-8"?>
<!-- Generator: Adobe Illustrator 26.5.0, SVG Export Plug-In . SVG Version: 6.00 Build 0)  -->
<svg version="1.1" id="Ebene_1" xmlns="http://www.w3.org/2000/svg" xmlns:xlink="http://www.w3.org/1999/xlink" x="0px" y="0px"
	 viewBox="0 0 313.5 141.8" style="enable-background:new 0 0 313.5 141.8;" xml:space="preserve">
<style type="text/css">
	.st0{fill:#FFFFFF;}
</style>
<g>
	<g>
		<path class="st0" d="M48.8,27.3c-23,0-41.5,18.6-41.5,41.6s18.6,41.6,41.5,41.6s41.5-18.6,41.5-41.6
			C90.4,45.9,71.8,27.3,48.8,27.3z M83.5,61.1l-6.9,2.3l-1.1-3.8l7.2-1.4L83.5,61.1z M78.9,49.7l1.6,2.7l-6.1,4.1l-2-3.5L78.9,49.7z
			 M75.1,44.7l-4.9,5.5l-2.8-2.7l5.5-4.9L75.1,44.7z M72,68.9c0,12.8-10.3,23.2-23.2,23.2S25.6,81.8,25.6,68.9S36,45.8,48.8,45.8
			S72,56.2,72,68.9z M65.2,37.3l2.7,1.6l-3.3,6.4l-3.4-2L65.2,37.3z M56.5,34l3,0.8L58,42l-3.8-0.9L56.5,34z M47.2,33.2h3l0.5,7.4
			h-3.9L47.2,33.2z M41,34l2.3,6.9L39.6,42l-1.4-7.2L41,34z M32.4,37.3l4.1,6.1l-3.4,2l-3.3-6.6L32.4,37.3z M24.7,42.6l5.5,4.9
			l-2.8,2.8l-4.9-5.5L24.7,42.6z M18.8,49.7l6.6,3.3l-2,3.4l-6.1-4.1L18.8,49.7z M14.9,58.1l7.2,1.4l-0.9,3.8L14.3,61L14.9,58.1z
			 M13.1,67.4l7.4-0.5v3.9l-7.4-0.5V67.4z M14.1,76.6l6.9-2.3l0.9,3.8l-7.2,1.4L14.1,76.6z M18.8,87.9l-1.6-2.7l6.1-4.1l1.9,3.4
			L18.8,87.9z M22.5,92.9l4.9-5.5l2.8,2.8l-5.5,4.9L22.5,92.9z M32.4,100.4l-2.7-1.6l3.3-6.6l3.4,2L32.4,100.4z M41,103.7l-3-0.8
			l1.4-7.2l3.8,0.9L41,103.7z M50.4,104.4h-3L46.9,97h3.9L50.4,104.4z M56.5,103.7l-2.3-6.9l3.8-0.9l1.4,7.2L56.5,103.7z
			 M65.2,100.4l-4.1-6.1l3.4-1.9l3.3,6.6L65.2,100.4z M72.9,95.1l-5.5-4.9l2.8-2.8l4.9,5.5L72.9,95.1z M78.9,88l-6.6-3.3l2-3.4
			l6.1,4.1L78.9,88z M82.8,79.6L75.6,78l1.1-3.8l6.9,2.3L82.8,79.6z M77.1,70.8v-3.9l7.4,0.5v3L77.1,70.8z"/>
	</g>
	<g>
		<g>
			<path class="st0" d="M175.5,68.5H170l-1.3-14.9l-6,14.7H159l-6-14.7l-1.3,14.9h-5.5l2.3-24.5h5.4l6.9,16.6l6.9-16.6h5.5
				L175.5,68.5z"/>
			<path class="st0" d="M204,68.5h-5.8l-2.2-5.7h-8.7l-2.1,5.7h-5.7l9.6-24.5h5.2L204,68.5z M188.5,58.5h6.5l-3.2-8.5L188.5,58.5z"
				/>
			<path class="st0" d="M223.9,48.6h-7.4v19.8H211V48.6h-7.3v-4.7h20.1L223.9,48.6L223.9,48.6z"/>
			<path class="st0" d="M246.3,48.6h-12.2v5.6h11.3v4.2h-11.3v5.4h12.2v4.7h-17.7V44h17.7V48.6z"/>
			<path class="st0" d="M269.6,45.7l-1.9,4c-1.9-1.1-4.4-1.8-6.6-1.8c-2.5,0-3.9,0.9-3.9,2.6c0,1.4,1.1,2.2,2.8,2.7l3.4,1.1
				c4.2,1.4,7,3.2,7,7.2c0,4.6-3.7,7.3-9.6,7.3c-3.8,0-7.5-1.1-9.9-2.8l2.2-4.1c2.3,1.6,5.3,2.6,7.7,2.6c2.6,0,4.1-1,4.1-2.7
				c0-1.6-1.3-2.4-3-2.9l-3.4-1.1c-4.8-1.6-6.8-3.7-6.8-7c0-4.4,3.5-7.2,9.1-7.2C263.9,43.6,267.1,44.4,269.6,45.7z"/>
			<path class="st0" d="M300.5,56.2c0,7.4-5.5,12.6-13,12.6c-7.6,0-13-5.3-13-12.6c0-7.4,5.5-12.6,13-12.6
				C295.1,43.6,300.5,48.9,300.5,56.2z M280,56.2c0,4.6,3.2,7.9,7.5,7.9s7.5-3.3,7.5-7.9s-3.2-7.9-7.5-7.9
				C283.2,48.4,280,51.6,280,56.2z"/>
		</g>
	</g>
	<g>
		<rect x="115.4" y="7" class="st0" width="3.5" height="123.8"/>
	</g>
</g>
<g>
	<g>
		<g>
			<path class="st0" d="M154,94.1h-1.7l-4.3-6.3v6.3h-1.7v-8.9h1.7l4.3,6.3v-6.3h1.7V94.1z"/>
			<path class="st0" d="M163.9,89.9c0,0.9-0.2,1.6-0.5,2.3c-0.3,0.6-0.8,1.1-1.4,1.5c-0.6,0.3-1.3,0.5-2.1,0.5s-1.5-0.2-2.1-0.5
				s-1.1-0.9-1.4-1.5c-0.3-0.6-0.5-1.4-0.5-2.2v-0.5c0-0.9,0.2-1.6,0.5-2.3c0.3-0.6,0.8-1.2,1.4-1.5s1.3-0.5,2.1-0.5
				s1.5,0.2,2.1,0.5s1.1,0.9,1.4,1.5c0.3,0.6,0.5,1.4,0.5,2.3V89.9z M162.2,89.4c0-1-0.2-1.7-0.6-2.3c-0.4-0.5-1-0.8-1.7-0.8
				s-1.3,0.3-1.7,0.8s-0.6,1.2-0.6,2.2v0.5c0,1,0.2,1.7,0.6,2.3s1,0.8,1.7,0.8s1.3-0.3,1.7-0.8s0.6-1.3,0.6-2.3V89.4z"/>
			<path class="st0" d="M173.4,91.9l1.5-6.6h1.7l-2.2,8.8h-1.6l-1.8-6.4l-2,6.3h-1.6l-2.3-8.8h1.7l1.5,6.6l1.8-6.6h1.4L173.4,91.9z"
				/>
			<path class="st0" d="M183.1,90.8v3.3h-1.7v-8.9h3.7c1.1,0,1.9,0.3,2.6,0.8c0.6,0.5,1,1.2,1,2.1s-0.3,1.6-0.9,2
				c-0.6,0.5-1.5,0.7-2.6,0.7H183.1L183.1,90.8z M183.1,89.6h2.1c0.6,0,1.1-0.1,1.4-0.4c0.3-0.3,0.5-0.6,0.5-1.1s-0.2-0.9-0.5-1.1
				c-0.3-0.3-0.8-0.4-1.3-0.4h-2.1L183.1,89.6L183.1,89.6z"/>
			<path class="st0" d="M194.5,92h-3.8l-0.8,2.1h-1.7l3.7-8.8h1.5l3.7,8.8h-1.8L194.5,92z M191.3,90.8h2.8l-1.4-3.7L191.3,90.8z"/>
			<path class="st0" d="M201.9,90.7H200v3.4h-1.7v-8.9h3.4c1.1,0,2,0.2,2.6,0.7c0.6,0.4,0.9,1.1,0.9,2c0,0.6-0.2,1.1-0.5,1.5
				s-0.8,0.7-1.3,0.9l2.2,3.7v0h-1.8L201.9,90.7z M200.1,89.4h1.7c0.6,0,1-0.1,1.4-0.4c0.3-0.3,0.5-0.6,0.5-1.1s-0.2-0.9-0.4-1.1
				c-0.3-0.3-0.8-0.4-1.4-0.4h-1.8V89.4L200.1,89.4z"/>
			<path class="st0" d="M213.7,86.5h-3v7.6H209v-7.6h-3v-1.2h7.7V86.5z"/>
			<path class="st0" d="M226,89.9c0,0.9-0.2,1.6-0.5,2.3c-0.3,0.6-0.8,1.1-1.4,1.5c-0.6,0.3-1.3,0.5-2.1,0.5s-1.5-0.2-2.1-0.5
				s-1.1-0.9-1.4-1.5c-0.3-0.6-0.5-1.4-0.5-2.2v-0.5c0-0.9,0.2-1.6,0.5-2.3c0.3-0.6,0.8-1.2,1.4-1.5s1.3-0.5,2.1-0.5
				s1.5,0.2,2.1,0.5s1.1,0.9,1.4,1.5c0.3,0.6,0.5,1.4,0.5,2.3V89.9z M224.3,89.4c0-1-0.2-1.7-0.6-2.3c-0.4-0.5-1-0.8-1.7-0.8
				s-1.3,0.3-1.7,0.8s-0.6,1.2-0.6,2.2v0.5c0,1,0.2,1.7,0.6,2.3s1,0.8,1.7,0.8s1.3-0.3,1.7-0.8s0.6-1.3,0.6-2.3V89.4z"/>
			<path class="st0" d="M233.4,90.4h-3.9v3.7h-1.7v-8.9h6.2v1.2h-4.5V89h3.9V90.4L233.4,90.4z"/>
		</g>
		<g>
			<g>
				<g>
					<g>
						<path class="st0" d="M287.2,94.1h2.5v-9.9h-2.5V94.1z M287.2,83.7h2.5v-1.9h-2.5V83.7z"/>
					</g>
				</g>
				<g>
					<path class="st0" d="M259.9,81.9v8c0,0.6,0.1,1.2,0.3,1.8s0.5,1,0.8,1.4c0.4,0.4,0.8,0.6,1.4,0.8c0.5,0.2,1.2,0.2,1.9,0.1v-2.3
						c-0.6,0.1-1.1-0.1-1.4-0.4s-0.4-0.8-0.4-1.4v-3.4h1.7v-2.2h-1.7v-2.5L259.9,81.9L259.9,81.9z"/>
				</g>
				<g>
					<path class="st0" d="M244.2,84.2c-0.6,0-1.2,0.1-1.8,0.3c-0.5,0.2-1,0.5-1.4,0.9s-0.6,0.9-0.9,1.4c-0.2,0.5-0.3,1.1-0.3,1.7
						v5.6h2.5v-5.7c0-0.5,0.2-1,0.5-1.4c0.3-0.3,0.8-0.5,1.4-0.5c0.4,0,0.8,0.1,1,0.2c0.2,0.2,0.4,0.3,0.5,0.5s0.2,0.4,0.3,0.6
						s0.1,0.4,0.1,0.5V94h2.5v-5.6c0-0.6-0.1-1.2-0.3-1.7s-0.5-1-0.9-1.4s-0.8-0.7-1.4-0.9C245.5,84.3,244.8,84.2,244.2,84.2"/>
				</g>
				<g>
					<g>
						<path class="st0" d="M254.3,84.2c-0.7,0-1.4,0.2-1.9,0.4c-0.6,0.3-1.1,0.6-1.6,1.1c-0.4,0.4-0.8,1-1.1,1.6s-0.4,1.2-0.4,1.9
							s0.1,1.4,0.4,1.9c0.3,0.6,0.6,1.2,1.1,1.6c0.4,0.4,1,0.8,1.6,1.1c0.6,0.3,1.2,0.4,1.9,0.4c1.2,0,2.2-0.3,3-0.9
							s1.4-1.4,1.7-2.4h-2.6c-0.2,0.4-0.5,0.7-0.9,0.9c-0.4,0.2-0.8,0.3-1.2,0.3s-0.8-0.1-1.2-0.3s-0.6-0.4-0.9-0.8l6.9-2.9
							c-0.1-0.6-0.3-1.2-0.6-1.7c-0.3-0.5-0.6-0.9-1.1-1.2c-0.4-0.4-0.9-0.6-1.4-0.8C255.4,84.3,254.9,84.2,254.3,84.2 M254.3,86.3
							c0.4,0,0.8,0.1,1.1,0.2c0.3,0.2,0.6,0.4,0.8,0.6l-4.5,1.9c0-0.4,0.1-0.8,0.2-1.1c0.2-0.3,0.3-0.6,0.5-0.9s0.5-0.4,0.8-0.6
							C253.6,86.4,253.9,86.3,254.3,86.3"/>
					</g>
				</g>
				<g>
					<path class="st0" d="M285.3,84.2c-0.5,0-0.9,0.1-1.3,0.2c-0.6,0.2-1.1,0.4-1.6,0.9c-0.4,0.4-0.8,0.9-1,1.4s-0.3,1.2-0.3,1.9
						v5.6h2.5v-5.6c0-0.7,0.2-1.2,0.7-1.6s1.1-0.5,1.9-0.4v-2.3C285.9,84.2,285.6,84.2,285.3,84.2"/>
				</g>
				<g>
					<polygon class="st0" points="290.6,84.3 294,89.1 290.5,94.1 293.5,94.1 295.5,91.1 297.5,94.1 300.7,94.1 297.1,89 
						300.3,84.3 297.3,84.3 295.5,87 293.8,84.3 					"/>
				</g>
				<g>
					<path class="st0" d="M265.2,84.4V90c0,0.6,0.1,1.2,0.3,1.8c0.2,0.5,0.5,1,0.9,1.4s0.8,0.6,1.4,0.9c0.5,0.2,1.1,0.3,1.8,0.3
						s1.2-0.1,1.7-0.4s1-0.6,1.4-1c0.4,0.4,0.8,0.8,1.3,1s1.1,0.4,1.8,0.4c0.6,0,1.2-0.1,1.8-0.3c0.5-0.2,1-0.5,1.4-0.9
						s0.7-0.9,0.9-1.4c0.2-0.5,0.3-1.1,0.3-1.7v-5.6h-2.5V90c0,0.5-0.2,1-0.5,1.4c-0.3,0.3-0.8,0.5-1.4,0.5c-0.4,0-0.8-0.1-1-0.2
						c-0.2-0.2-0.4-0.3-0.5-0.5s-0.2-0.4-0.3-0.6c-0.1-0.2-0.1-0.4-0.1-0.5v-5.7h-2.5V90c0,0.5-0.2,1-0.5,1.4
						c-0.3,0.3-0.8,0.5-1.4,0.5c-0.4,0-0.7-0.1-1-0.2c-0.2-0.2-0.4-0.3-0.5-0.5s-0.2-0.4-0.3-0.6c-0.1-0.2-0.1-0.4-0.1-0.5v-5.7
						L265.2,84.4L265.2,84.4z"/>
				</g>
			</g>
		</g>
	</g>
</g>
</svg>
